<?xml version="1.0" encoding="utf-8"?>
<!-- Generator: Adobe Illustrator 22.0.0, SVG Export Plug-In . SVG Version: 6.00 Build 0)  -->
<svg version="1.1" xmlns="http://www.w3.org/2000/svg" xmlns:xlink="http://www.w3.org/1999/xlink" x="0px" y="0px"
	 viewBox="0 0 463.891 86.335" enable-background="new 0 0 463.891 86.335" xml:space="preserve">
<g id="BACKGROUND" display="none">
	<rect x="-90.957" y="-90.957" display="inline" fill="#250E62" width="645.805" height="268.25"/>
</g>
<g id="ACCUV_x5F_Logo_x5F_RGB">
	<g>
		<path fill="#12F9E3" d="M451.275,3.268l-27.532,65.516c-1.149,2.142-3.202,3.42-5.506,3.42c-2.297-0.005-4.352-1.296-5.466-3.39
			l-27.05-65.084l-0.191-0.462h-12.596l29.188,70.228l0.168,0.364c3.099,6.135,9.197,9.956,15.962,9.975
			c6.696,0,12.795-3.788,15.917-9.89l29.722-70.677H451.275z"/>
		<g>
			<path fill="#FFFFFF" d="M166.51,54.414c-4.65,12.137-16.488,20.291-29.457,20.291c-17.39,0-31.537-14.147-31.537-31.537
				c0-17.389,14.147-31.537,31.537-31.537c12.969,0,24.807,8.154,29.457,20.291l0.185,0.481h12.166l-0.27-0.954
				C173.36,12.933,156.279,0,137.053,0C113.25,0,93.886,19.365,93.886,43.167s19.365,43.168,43.167,43.168
				c19.225,0,36.306-12.933,41.538-31.449l0.27-0.954h-12.166L166.51,54.414z"/>
			<path fill="#FFFFFF" d="M262.732,54.414c-4.65,12.137-16.487,20.291-29.456,20.291c-17.39,0-31.538-14.147-31.538-31.537
				c0-17.389,14.147-31.537,31.538-31.537c12.969,0,24.806,8.154,29.456,20.291l0.185,0.481h12.166l-0.27-0.954
				C269.582,12.933,252.501,0,233.276,0c-23.803,0-43.168,19.365-43.168,43.167s19.365,43.168,43.168,43.168
				c19.226,0,36.306-12.933,41.537-31.449l0.27-0.954h-12.166L262.732,54.414z"/>
			<path fill="#FFFFFF" d="M61.768,13.605L61.6,13.242c-3.098-6.134-9.196-9.956-15.961-9.974c-6.697,0-12.795,3.789-15.916,9.887
				L0,83.834h12.617l27.531-65.517c1.15-2.142,3.203-3.42,5.507-3.42c2.297,0.006,4.352,1.297,5.466,3.39l27.242,65.546h12.595
				L61.768,13.605z"/>
			<path fill="#FFFFFF" d="M350.222,3.268v39.967c0,16.659-12.117,30.733-26.459,30.733c-14.319,0-25.97-13.787-25.97-30.733V3.268
				H286.33v39.9c0,25.014,15.847,43.168,37.679,43.168s37.679-18.154,37.679-43.168v-39.9H350.222z"/>
		</g>
	</g>
</g>
<g id="SAFE_AREA" display="none">
	<path display="inline" fill="#D0D2D3" d="M542.232,3.268L514.7,68.784c-1.149,2.142-3.202,3.42-5.506,3.42
		c-2.297-0.005-4.352-1.296-5.466-3.39l-27.05-65.084l-0.191-0.462h-12.596l29.188,70.228l0.168,0.364
		c3.099,6.135,9.197,9.956,15.962,9.975c6.696,0,12.795-3.788,15.917-9.89l29.722-70.677H542.232z"/>
	<path display="inline" fill="#D0D2D3" d="M-78.341,83.834l27.532-65.516c1.149-2.142,3.202-3.42,5.506-3.42
		c2.297,0.005,4.352,1.296,5.466,3.39l27.05,65.084l0.191,0.462H0l-29.188-70.228l-0.168-0.364
		c-3.099-6.135-9.197-9.956-15.962-9.975c-6.696,0-12.795,3.788-15.917,9.89l-29.722,70.677H-78.341z"/>
	<path display="inline" fill="#D0D2D3" d="M271.074,164.676l-65.516-27.532c-2.142-1.149-3.42-3.202-3.42-5.506
		c0.005-2.297,1.296-4.352,3.39-5.466l65.084-27.05l0.462-0.191V86.335l-70.228,29.188l-0.364,0.168
		c-6.135,3.099-9.956,9.197-9.975,15.962c0,6.696,3.788,12.795,9.89,15.917l70.677,29.722V164.676z"/>
	<path display="inline" fill="#D0D2D3" d="M190.507-78.341l65.516,27.532c2.142,1.149,3.42,3.202,3.42,5.506
		c-0.005,2.297-1.296,4.352-3.39,5.466l-65.084,27.05l-0.462,0.191V0l70.228-29.188l0.364-0.168
		c6.135-3.099,9.956-9.197,9.975-15.962c0-6.696-3.788-12.795-9.89-15.917l-70.677-29.722V-78.341z"/>
</g>
</svg>
