<?xml version="1.0" encoding="utf-8"?>
<!-- Generator: Adobe Illustrator 16.0.0, SVG Export Plug-In . SVG Version: 6.00 Build 0)  -->
<!DOCTYPE svg PUBLIC "-//W3C//DTD SVG 1.1//EN" "http://www.w3.org/Graphics/SVG/1.1/DTD/svg11.dtd">
<svg version="1.1" id="Layer_1" xmlns="http://www.w3.org/2000/svg" xmlns:xlink="http://www.w3.org/1999/xlink" x="0px" y="0px"
	 width="156.921px" height="76.178px" viewBox="0 0 156.921 76.178" enable-background="new 0 0 156.921 76.178"
	 xml:space="preserve">
<g>
	<path fill="#FFFFFF" d="M32.638,60.981c0-1.408,0.273-2.816,0.818-4.229c0.545-1.404,1.336-2.67,2.369-3.789
		c1.037-1.123,2.314-2.029,3.838-2.717c1.523-0.691,3.264-1.039,5.215-1.039c2.301,0,4.262,0.484,5.885,1.449
		c1.625,0.963,2.836,2.201,3.645,3.729l-2.156,1.379c-0.402-0.775-0.891-1.424-1.465-1.939c-0.572-0.518-1.189-0.941-1.852-1.271
		c-0.66-0.332-1.354-0.563-2.068-0.691c-0.719-0.127-1.424-0.189-2.113-0.189c-1.521,0-2.871,0.277-4.051,0.836
		c-1.18,0.564-2.164,1.291-2.951,2.176c-0.793,0.895-1.389,1.9-1.791,3.02c-0.402,1.121-0.604,2.26-0.604,3.404
		c0,1.266,0.238,2.48,0.709,3.645c0.475,1.166,1.135,2.193,1.984,3.082c0.846,0.893,1.854,1.594,3.016,2.115
		c1.164,0.514,2.422,0.775,3.773,0.775c0.717,0,1.449-0.076,2.195-0.236c0.748-0.158,1.473-0.408,2.178-0.754
		c0.705-0.348,1.35-0.793,1.939-1.338c0.588-0.543,1.084-1.193,1.486-1.938l2.285,1.25c-0.432,0.861-1.02,1.637-1.766,2.328
		c-0.75,0.688-1.588,1.262-2.523,1.723c-0.934,0.457-1.92,0.813-2.953,1.053c-1.033,0.246-2.041,0.365-3.016,0.365
		c-1.783,0-3.404-0.346-4.871-1.049c-1.465-0.707-2.73-1.633-3.795-2.783c-1.063-1.148-1.891-2.449-2.475-3.9
		C32.933,63.993,32.638,62.507,32.638,60.981z M59.04,60.981c0-1.408,0.27-2.816,0.818-4.229c0.547-1.404,1.334-2.67,2.371-3.789
		c1.035-1.123,2.311-2.029,3.836-2.717c1.52-0.691,3.264-1.039,5.217-1.039c2.297,0,4.26,0.484,5.883,1.449
		c1.623,0.963,2.838,2.201,3.643,3.729l-2.156,1.379c-0.4-0.775-0.893-1.424-1.465-1.939c-0.576-0.518-1.191-0.941-1.854-1.271
		c-0.658-0.332-1.35-0.563-2.066-0.691c-0.721-0.127-1.426-0.189-2.113-0.189c-1.523,0-2.875,0.277-4.053,0.836
		c-1.178,0.564-2.164,1.291-2.955,2.176c-0.787,0.895-1.385,1.9-1.787,3.02c-0.402,1.121-0.602,2.26-0.602,3.404
		c0,1.266,0.238,2.48,0.709,3.645c0.475,1.166,1.135,2.193,1.984,3.082c0.844,0.893,1.85,1.594,3.016,2.115
		c1.164,0.514,2.418,0.775,3.771,0.775c0.719,0,1.449-0.076,2.197-0.236c0.748-0.158,1.471-0.408,2.176-0.754
		c0.705-0.348,1.35-0.793,1.941-1.338c0.586-0.543,1.086-1.193,1.488-1.938l2.281,1.25c-0.43,0.861-1.018,1.637-1.766,2.328
		c-0.748,0.688-1.59,1.262-2.52,1.723c-0.938,0.457-1.92,0.813-2.953,1.053c-1.037,0.246-2.043,0.365-3.018,0.365
		c-1.783,0-3.408-0.346-4.875-1.049c-1.463-0.707-2.729-1.633-3.793-2.783c-1.063-1.148-1.889-2.449-2.479-3.9
		C59.333,63.993,59.04,62.507,59.04,60.981z M97.573,70.681c1.58,0,2.895-0.273,3.947-0.816c1.045-0.549,1.887-1.26,2.518-2.137
		s1.068-1.873,1.314-2.994c0.244-1.119,0.369-2.268,0.369-3.447V49.343h2.713v11.943c0,1.607-0.191,3.123-0.578,4.545
		c-0.387,1.424-1.016,2.684-1.875,3.771c-0.859,1.094-1.977,1.955-3.34,2.586c-1.363,0.635-3.037,0.951-5.02,0.951
		c-2.041,0-3.75-0.342-5.131-1.018c-1.381-0.674-2.484-1.557-3.318-2.648c-0.838-1.092-1.438-2.352-1.811-3.773
		c-0.375-1.422-0.564-2.895-0.564-4.414V49.343h2.721v11.943c0,1.205,0.127,2.369,0.387,3.488s0.705,2.121,1.334,2.994
		c0.633,0.877,1.463,1.584,2.48,2.115C94.735,70.417,96.021,70.681,97.573,70.681z M1.409,72.966l13.861-29.943h0.648l13.637,29.943
		h-3.189L15.505,48.751L4.558,72.966H1.409z"/>
	<path fill="#F26B35" d="M149.229,54.431c-0.895,0-1.719-0.152-2.479-0.455c-0.762-0.307-1.422-0.721-1.977-1.26
		c-0.559-0.533-0.99-1.166-1.301-1.891c-0.305-0.727-0.463-1.518-0.463-2.379c0-0.852,0.158-1.639,0.463-2.367
		c0.307-0.729,0.742-1.355,1.301-1.887c0.555-0.527,1.215-0.943,1.977-1.248c0.76-0.305,1.586-0.453,2.479-0.453
		s1.721,0.152,2.49,0.453c0.764,0.305,1.428,0.719,1.99,1.248c0.564,0.531,1.002,1.158,1.322,1.887
		c0.32,0.727,0.479,1.514,0.479,2.367c0,0.857-0.158,1.65-0.479,2.379c-0.324,0.725-0.76,1.359-1.322,1.891
		c-0.563,0.539-1.229,0.953-1.99,1.26C150.952,54.278,150.122,54.431,149.229,54.431z M149.229,53.618
		c0.75,0,1.449-0.125,2.098-0.379c0.654-0.254,1.215-0.605,1.697-1.061c0.479-0.449,0.855-0.992,1.129-1.623
		c0.281-0.637,0.416-1.33,0.416-2.078c0-0.727-0.133-1.406-0.404-2.035s-0.639-1.174-1.115-1.637
		c-0.475-0.461-1.039-0.828-1.686-1.092c-0.65-0.262-1.363-0.398-2.131-0.398c-0.773,0-1.482,0.137-2.125,0.398
		c-0.645,0.264-1.203,0.631-1.674,1.092c-0.465,0.463-0.832,1.006-1.098,1.627c-0.264,0.627-0.395,1.293-0.395,2.01
		c0,0.725,0.135,1.404,0.395,2.031c0.266,0.633,0.633,1.178,1.098,1.65c0.471,0.467,1.029,0.832,1.674,1.102
		C147.751,53.487,148.46,53.618,149.229,53.618z M146.552,44.788h3.225c0.338,0,0.648,0.074,0.934,0.215
		c0.279,0.146,0.52,0.332,0.725,0.564c0.209,0.23,0.363,0.492,0.48,0.777c0.117,0.287,0.174,0.574,0.174,0.877
		c0,0.449-0.121,0.873-0.363,1.273c-0.24,0.393-0.563,0.672-0.959,0.824l1.703,2.744h-1.768l-1.52-2.445h-1.057v2.445h-1.574V44.788
		L146.552,44.788z M149.642,48.261c0.275,0,0.498-0.09,0.66-0.275c0.17-0.18,0.25-0.436,0.25-0.768c0-0.354-0.096-0.611-0.281-0.785
		c-0.188-0.17-0.408-0.254-0.662-0.254h-1.484v2.082H149.642z M114.802,42.358l10.943,24.215l10.865-24.215h3.193l-13.639,29.943
		h-0.652l-13.857-29.943H114.802L114.802,42.358z M106.718,20.562c-3.973,0-7.188,3.219-7.188,7.189
		c0,3.967,3.217,7.186,7.188,7.186s7.188-3.219,7.188-7.186C113.905,23.78,110.688,20.562,106.718,20.562z M91.31,8.513
		c-3.572,0-6.467,2.896-6.467,6.467c0,3.574,2.895,6.471,6.467,6.471s6.469-2.896,6.469-6.471
		C97.778,11.411,94.882,8.513,91.31,8.513z M73.698,2.999c-3.215,0-5.82,2.604-5.82,5.82c0,3.215,2.605,5.822,5.82,5.822
		c3.217,0,5.824-2.607,5.824-5.822C79.522,5.603,76.915,2.999,73.698,2.999z M54.329,4.019c-2.895,0-5.238,2.348-5.238,5.242
		s2.344,5.242,5.238,5.242s5.24-2.346,5.24-5.242C59.569,6.366,57.224,4.019,54.329,4.019z M36.058,12.501
		c-2.342,0-4.244,1.898-4.244,4.242s1.902,4.242,4.244,4.242c2.344,0,4.244-1.898,4.244-4.242
		C40.302,14.401,38.403,12.501,36.058,12.501z M20.21,24.974c-1.898,0-3.438,1.541-3.438,3.439c0,1.896,1.539,3.436,3.438,3.436
		c1.9,0,3.439-1.539,3.439-3.436C23.647,26.511,22.11,24.974,20.21,24.974z"/>
</g>
</svg>
