<?xml version="1.0" encoding="utf-8"?>
<!-- Generator: Adobe Illustrator 16.0.0, SVG Export Plug-In . SVG Version: 6.00 Build 0)  -->
<!DOCTYPE svg PUBLIC "-//W3C//DTD SVG 1.1//EN" "http://www.w3.org/Graphics/SVG/1.1/DTD/svg11.dtd">
<svg version="1.1" id="Layer_1" xmlns="http://www.w3.org/2000/svg" xmlns:xlink="http://www.w3.org/1999/xlink" x="0px" y="0px"
	 width="100%" height="100%" viewBox="0 0 1000 1000" enable-background="new 0 0 1000 1000" xml:space="preserve">
<path fill="#70C3C3" d="M500,1000c275,0,500-225,500-500S775,0,500,0C225,0,0,225,0,500S225,1000,500,1000z"/>
<g>
	<path fill="#23373A" d="M227.272,375.301c-2.849,34.189,14.245,54.129,39.885,71.225c34.187,22.791,74.072,37.035,113.957,39.883
		c113.957,14.246,219.366-8.545,324.776-54.129c17.094-8.545,34.188-19.941,48.432-34.186c8.549-8.547,14.246-19.943,14.246-31.338
		c11.395,17.094,17.092,37.035,22.791,56.979c5.697,34.186-8.547,56.979-34.188,74.07c-31.338,22.793-68.373,31.338-105.41,37.037
		c-65.525,11.396-133.898,11.396-199.424,5.697c-51.281-5.697-99.712-14.244-145.296-31.336
		c-22.791-8.549-45.582-19.945-65.524-37.039c-5.698-2.848-8.548-8.547-11.396-11.395c-11.396-14.244-19.941-25.641-11.396-45.584
		C215.876,403.791,218.726,389.547,227.272,375.301z"/>
	<path fill="#23373A" d="M201.631,500.654c31.339,68.375,91.166,94.016,159.541,108.26c74.071,14.246,145.295,8.545,216.518-8.549
		c59.828-14.244,116.807-31.336,168.088-62.674c22.791-14.244,42.732-28.488,54.129-51.283c0,37.039,2.848,76.924-22.791,108.262
		c-19.943,22.789-45.584,37.035-71.225,48.43c-39.885,17.094-85.467,22.793-128.201,25.641c-39.885,2.848-79.77,2.848-122.503,0
		c-68.375-5.697-133.9-22.791-190.878-56.979C218.726,583.273,193.084,551.936,201.631,500.654z"/>
	<path fill="#23373A" d="M301.344,275.59c-14.245,31.338-5.697,56.979,19.942,74.072c19.943,14.244,42.734,19.941,68.375,19.941
		c79.77,8.547,156.69,0,230.763-28.488c22.791-8.547,42.734-19.943,62.676-34.188c8.547-8.547,14.244-17.094,14.244-31.338
		c17.096,14.244,31.338,28.488,42.734,45.582s5.699,37.035-8.547,54.129c-19.941,22.793-45.582,34.189-74.072,42.734
		c-51.281,14.244-102.561,17.094-156.691,14.244c-54.127-2.85-108.258-11.395-159.538-28.488
		c-25.641-8.545-51.28-19.941-71.224-37.035c-5.698-2.85-8.546-8.549-11.396-14.244c-8.547-14.246-8.547-22.793,2.85-37.039
		C272.855,301.229,284.25,286.984,301.344,275.59z"/>
	<path fill="#23373A" d="M486.524,318.324c-42.734,0-85.468-2.852-128.202-19.943c-8.547-2.848-17.093-8.547-25.639-14.244
		c-14.245-14.246-14.245-25.641,2.848-37.037c17.094-11.395,37.036-22.791,56.979-28.488
		c91.166-31.34,176.633-25.641,259.252,22.791c22.791,14.244,22.791,25.641,0,42.734c-25.641,17.092-54.129,22.791-82.619,28.488
		C540.654,315.473,515.014,318.324,486.524,318.324z"/>
	<path fill="#23373A" d="M232.97,634.553c54.129,54.131,122.504,71.225,193.727,76.922c94.014,8.547,185.18-5.697,270.647-42.734
		c28.49-14.244,56.979-31.336,76.922-59.826c2.85,2.848,0,5.695,0,8.545c-25.641,62.678-74.072,96.865-136.748,113.959
		c-108.26,28.488-213.669,22.791-316.231-19.943c-34.187-14.244-65.525-39.887-85.467-74.07
		C232.97,637.404,232.97,634.553,232.97,634.553z"/>
	<path fill="#23373A" d="M332.683,742.811c59.827,25.643,119.654,31.342,185.18,31.342c56.977-2.852,113.955-14.246,165.236-39.887
		c2.85,0,2.85,0,2.85,2.85c-48.432,37.037-102.561,59.826-165.238,62.674c-68.374,5.701-128.201-11.395-185.18-48.428
		C332.683,745.662,329.833,745.662,332.683,742.811C329.833,742.811,329.833,739.963,332.683,742.811z"/>
	<path fill="#23373A" d="M683.1,734.266C683.1,731.418,680.25,731.418,683.1,734.266c0-2.848,2.85-5.697,2.85-5.697h2.85
		C688.799,731.418,685.949,731.418,683.1,734.266z"/>
	<path fill="#23373A" d="M332.683,742.811C329.833,742.811,329.833,742.811,332.683,742.811c-5.698,0-8.547,0-11.397-2.848
		C324.136,737.115,326.985,739.963,332.683,742.811z"/>
</g>
</svg>
