<?xml version="1.0" encoding="utf-8"?>
<!-- Generator: Adobe Illustrator 16.0.0, SVG Export Plug-In . SVG Version: 6.00 Build 0)  -->
<!DOCTYPE svg PUBLIC "-//W3C//DTD SVG 1.1//EN" "http://www.w3.org/Graphics/SVG/1.1/DTD/svg11.dtd">
<svg version="1.1" id="Layer_1" xmlns="http://www.w3.org/2000/svg" xmlns:xlink="http://www.w3.org/1999/xlink" x="0px" y="0px"
	 width="100%" height="100%" viewBox="0 0 1000 1000" enable-background="new 0 0 1000 1000" xml:space="preserve">
<path fill="#70C3C3" d="M500,1000c275,0,500-225,500-500S775,0,500,0C225,0,0,225,0,500S225,1000,500,1000z"/>
<g>
	<path fill="#23373A" d="M348.561,795.625h164.985c0,0,33.556-95.076-142.614-131.429
		C370.932,666.992,345.764,708.938,348.561,795.625z"/>
	<path fill="#23373A" d="M334.579,250.334c0,0-170.579,190.154,13.982,349.545c0,0,125.836,151.004,327.173,0L334.579,250.334z"/>
	<g>
		<path fill="#ED6B39" d="M737.255,432.098C726.068,200,502.36,200,502.36,200c-11.186,0-22.371,8.389-22.371,22.371
			c0,13.981,11.186,22.371,22.371,22.371c195.745,19.574,190.152,190.152,190.152,190.152c0,13.982,11.187,25.167,22.371,25.167
			C726.068,457.265,737.255,446.08,737.255,432.098z"/>
		<path fill="#ED6B39" d="M630.994,426.505c-5.595-125.836-125.838-125.836-125.838-125.836c-5.592,0-11.186,5.593-11.186,11.186
			s5.594,11.186,11.186,11.186c92.28,22.371,100.67,103.465,100.67,103.465c0,8.39,5.593,13.983,11.185,13.983
			C625.399,440.488,630.994,434.895,630.994,426.505z"/>
	</g>
</g>
</svg>
