<?xml version="1.0" encoding="utf-8"?>
<!-- Generator: Adobe Illustrator 16.0.0, SVG Export Plug-In . SVG Version: 6.00 Build 0)  -->
<!DOCTYPE svg PUBLIC "-//W3C//DTD SVG 1.1//EN" "http://www.w3.org/Graphics/SVG/1.1/DTD/svg11.dtd">
<svg version="1.1" id="Layer_1" xmlns="http://www.w3.org/2000/svg" xmlns:xlink="http://www.w3.org/1999/xlink" x="0px" y="0px"
	 width="100%" height="100%" viewBox="0 0 1000 1000" enable-background="new 0 0 1000 1000" xml:space="preserve">
<path fill="#70C3C3" d="M500,1000c275,0,500-225,500-500S775,0,500,0C225,0,0,225,0,500S225,1000,500,1000z"/>
<g>
	<g>
		<path fill="#23373A" d="M595.363,783.166l-44.701-193.709l131.125,140.066C684.768,732.504,669.867,762.305,595.363,783.166z"/>
		<path fill="#23373A" d="M792.053,556.676l-187.748-56.623l187.748-44.701C792.053,455.352,809.934,482.174,792.053,556.676z"/>
		<path fill="#23373A" d="M780.133,401.709l-190.729,47.682l140.064-134.105C729.469,315.285,759.271,330.186,780.133,401.709z"/>
		<path fill="#23373A" d="M398.676,219.92l47.682,190.729L312.251,270.582C312.251,270.582,327.152,240.781,398.676,219.92z"/>
		<path fill="#23373A" d="M207.947,446.41l187.748,53.643l-187.748,47.682C207.947,547.734,190.066,520.914,207.947,446.41z"/>
		<path fill="#23373A" d="M219.868,601.379l190.728-47.684L270.529,687.801C270.529,687.801,243.707,675.883,219.868,601.379z"/>
	</g>
	<g>
		<path fill="#EB6434" d="M723.51,696.74L589.404,553.695l184.768,56.623C774.172,607.338,777.152,640.119,723.51,696.74z"/>
		<path fill="#EB6434" d="M693.709,273.564L550.662,410.648l53.643-184.768C607.283,222.9,640.066,222.9,693.709,273.564z"/>
		<path fill="#EB6434" d="M553.643,208L500,395.748L452.316,208C452.316,208,479.139,190.119,553.643,208z"/>
		<path fill="#EB6434" d="M273.508,306.344L410.595,446.41L222.847,392.77C222.847,395.748,219.868,362.969,273.508,306.344z"/>
		<path fill="#EB6434" d="M309.272,729.523l140.065-137.088l-50.661,187.752C398.676,777.205,365.894,780.188,309.272,729.523z"/>
		<path fill="#EB6434" d="M449.337,792.105l53.643-190.727l47.683,187.748C550.662,792.105,523.84,809.988,449.337,792.105z"/>
	</g>
</g>
</svg>
