<?xml version="1.0" encoding="utf-8"?>
<!-- Generator: Adobe Illustrator 16.0.0, SVG Export Plug-In . SVG Version: 6.00 Build 0)  -->
<!DOCTYPE svg PUBLIC "-//W3C//DTD SVG 1.1//EN" "http://www.w3.org/Graphics/SVG/1.1/DTD/svg11.dtd">
<svg version="1.1" id="Layer_1" xmlns="http://www.w3.org/2000/svg" xmlns:xlink="http://www.w3.org/1999/xlink" x="0px" y="0px"
	 width="100%" height="100%" viewBox="0 0 1000 1000" enable-background="new 0 0 1000 1000" xml:space="preserve">
<g>
	<path fill="#70C3C3" d="M500,1000c274.999,0,500-225.002,500-500C1000,225,774.999,0,500,0C225,0,0,225,0,500
		C0,774.998,225,1000,500,1000z"/>
	<path fill="#23373A" d="M730,510h-95v-95c0-27.613-22.386-50-50-50h-95v-95c0-27.613-22.386-50-50-50H270
		c-27.614,0-50,22.387-50,50v170c0,27.615,22.386,50,50,50h95v95c0,27.615,22.386,50,50,50h95v95c0,27.615,22.386,50,50,50h170
		c27.614,0,50-22.385,50-50V560C780,532.387,757.614,510,730,510z"/>
	<path fill="#EB6434" d="M730,550h-95v35c0,27.615-22.386,50-50,50h-35v95c0,5.523,4.477,10,10,10h170c5.523,0,10-4.477,10-10V560
		C740,554.477,735.523,550,730,550z"/>
	<path fill="#F39D77" d="M585,405h-95v35c0,27.615-22.386,50-50,50h-35v95c0,5.523,4.477,10,10,10h170c5.523,0,10-4.477,10-10V415
		C595,409.477,590.523,405,585,405z"/>
	<path fill="#FFFFFF" d="M260,440c0,5.523,4.477,10,10,10h170c5.523,0,10-4.477,10-10V270c0-5.523-4.477-10-10-10H270
		c-5.523,0-10,4.477-10,10V440z"/>
</g>
</svg>
