<?xml version="1.0" encoding="utf-8"?>
<!-- Generator: Adobe Illustrator 16.0.0, SVG Export Plug-In . SVG Version: 6.00 Build 0)  -->
<!DOCTYPE svg PUBLIC "-//W3C//DTD SVG 1.1//EN" "http://www.w3.org/Graphics/SVG/1.1/DTD/svg11.dtd">
<svg version="1.1" id="Layer_1" xmlns="http://www.w3.org/2000/svg" xmlns:xlink="http://www.w3.org/1999/xlink" x="0px" y="0px"
	 width="100%" height="100%" viewBox="0 0 1000 1000" enable-background="new 0 0 1000 1000" xml:space="preserve">
<g>
	<path fill="#70C3C3" d="M500,1000c275,0,500-225,500-500S775,0,500,0S0,225,0,500S225,1000,500,1000z"/>
	<path fill="#FFFFFF" d="M790,260H278.998H240h-30c-5.523,0-10,4.477-10,10v40v28.998V670c0,5.523,4.477,10,10,10h580
		c5.523,0,10-4.477,10-10v-68.998V270C800,264.477,795.523,260,790,260z"/>
	<path fill="#23373A" d="M800,230H200c-11.046,0-20,8.954-20,20s8.954,20,20,20c0-5.523,4.477-10,10-10h30h38.998H790
		c5.523,0,10,4.477,10,10c11.046,0,20-8.954,20-20S811.046,230,800,230z"/>
	<path fill="#23373A" d="M590,680v40H410v-40h-40v110c0,11.046,8.954,20,20,20s20-8.954,20-20v-50h180v50c0,11.046,8.954,20,20,20
		s20-8.954,20-20V680H590z"/>
	<path fill="#23373A" d="M380.916,417.371L224.453,521.68c-4.595,3.063-5.837,9.272-2.773,13.867
		c3.063,4.596,9.273,5.838,13.867,2.773L392.013,434.01C386.608,429.955,382.62,424.118,380.916,417.371z"/>
	<circle fill="#7F8386" cx="410" cy="410" r="30"/>
	<path fill="#23373A" d="M778.32,404.453c-3.063-4.596-9.271-5.838-13.867-2.773L607.987,505.99
		c5.404,4.055,9.393,9.892,11.098,16.639L775.547,418.32C780.143,415.257,781.384,409.048,778.32,404.453z"/>
	<circle fill="#7F8386" cx="590" cy="530" r="30"/>
	<path fill="#23373A" d="M572.013,505.99l-132.928-88.619c-1.705,6.747-5.693,12.584-11.097,16.639l132.928,88.619
		C562.62,515.882,566.608,510.045,572.013,505.99z"/>
	<g>
		<polygon fill="#EB6434" points="293,500.018 293,528 348,528 348,473 333.527,473 		"/>
		<rect x="293" y="593" fill="#EB6434" width="55" height="57"/>
		<rect x="293" y="533" fill="#EB6434" width="55" height="55"/>
		<polygon fill="#EB6434" points="293,468 304.973,468 348,439.314 348,413 293,413 		"/>
		<polygon fill="#EB6434" points="348,468 348,463.352 341.027,468 		"/>
		<rect x="230" y="413" fill="#EB6434" width="58" height="55"/>
		<polygon fill="#EB6434" points="230,517.982 288,479.314 288,473 230,473 		"/>
		<rect x="230" y="353" fill="#EB6434" width="58" height="55"/>
		<polygon fill="#EB6434" points="288,528 288,503.352 251.027,528 		"/>
		<rect x="230" y="290" fill="#EB6434" width="58" height="58"/>
		<rect x="353" y="290" fill="#EB6434" width="54" height="58"/>
		<path fill="#EB6434" d="M353,408h27.074c0.965-14.639,12.422-26.41,26.926-27.85V353h-54V408z"/>
		<rect x="293" y="353" fill="#EB6434" width="55" height="55"/>
		<rect x="412" y="593" fill="#EB6434" width="55" height="57"/>
		<path fill="#EB6434" d="M353,460.018V468h54v-28.15c-5.59-0.555-10.728-2.643-14.988-5.84L353,460.018z"/>
		<rect x="353" y="473" fill="#EB6434" width="54" height="55"/>
		<rect x="353" y="593" fill="#EB6434" width="54" height="57"/>
		<rect x="293" y="290" fill="#EB6434" width="55" height="58"/>
		<rect x="353" y="533" fill="#EB6434" width="54" height="55"/>
		<path fill="#EB6434" d="M438.29,419.984c0.024-0.068,0.05-0.135,0.073-0.203C438.339,419.85,438.313,419.916,438.29,419.984z"/>
		<polygon fill="#EB6434" points="472,463.352 472,468 478.972,468 		"/>
		<polygon fill="#EB6434" points="515.027,468 527,468 527,413 472,413 472,439.314 		"/>
		<rect x="412" y="290" fill="#EB6434" width="55" height="58"/>
		<path fill="#EB6434" d="M439.044,417.506c0.012-0.045,0.029-0.089,0.041-0.135L467,435.981V413h-27.15
			C439.697,414.54,439.421,416.043,439.044,417.506z"/>
		<rect x="472" y="353" fill="#EB6434" width="55" height="55"/>
		<path fill="#EB6434" d="M235.547,538.32c-1.708,1.139-3.638,1.681-5.547,1.679V588h58v-55h-44.473L235.547,538.32z"/>
		<polygon fill="#EB6434" points="653,473 653,475.982 657.473,473 		"/>
		<path fill="#EB6434" d="M439.926,408H467v-55h-55v27.074C426.973,381.061,438.939,393.027,439.926,408z"/>
		<polygon fill="#EB6434" points="713,413 713,435.982 747.473,413 		"/>
		<rect x="472" y="290" fill="#EB6434" width="55" height="58"/>
		<polygon fill="#EB6434" points="527,475.981 527,473 522.527,473 		"/>
		<polygon fill="#EB6434" points="293,473 293,475.981 297.473,473 		"/>
		<path fill="#EB6434" d="M380.15,413H353v22.981l27.916-18.61C380.557,415.951,380.298,414.492,380.15,413z"/>
		<rect x="412" y="533" fill="#EB6434" width="55" height="55"/>
		<rect x="230" y="593" fill="#EB6434" width="58" height="57"/>
		<path fill="#EB6434" d="M431.827,430.572c-0.06,0.064-0.122,0.126-0.183,0.189C431.705,430.698,431.767,430.637,431.827,430.572z"
			/>
		<path fill="#EB6434" d="M436.173,424.656c0.035-0.063,0.072-0.123,0.106-0.186C436.245,424.533,436.208,424.594,436.173,424.656z"
			/>
		<path fill="#EB6434" d="M437.329,422.372c0.029-0.064,0.061-0.128,0.089-0.192C437.39,422.244,437.358,422.308,437.329,422.372z"
			/>
		<path fill="#EB6434" d="M433.318,428.864c0.047-0.058,0.096-0.113,0.143-0.172C433.414,428.751,433.365,428.807,433.318,428.864z"
			/>
		<path fill="#EB6434" d="M434.833,426.822c0.041-0.06,0.083-0.117,0.124-0.178C434.917,426.705,434.874,426.763,434.833,426.822z"
			/>
		<rect x="532" y="290" fill="#EB6434" width="56" height="58"/>
		<rect x="653" y="593" fill="#EB6434" width="55" height="57"/>
		<rect x="593" y="353" fill="#EB6434" width="55" height="55"/>
		<rect x="593" y="290" fill="#EB6434" width="55" height="58"/>
		<rect x="653" y="533" fill="#EB6434" width="55" height="55"/>
		<polygon fill="#EB6434" points="708,468 708,463.352 701.027,468 		"/>
		<polygon fill="#EB6434" points="653,500.019 653,528 708,528 708,473 693.527,473 		"/>
		<polygon fill="#EB6434" points="619,522.629 619.002,522.628 619,522.624 		"/>
		<path fill="#EB6434" d="M619.926,528H648v-24.648l-28.998,19.276C619.999,524.363,619.805,526.16,619.926,528z"/>
		<path fill="#EB6434" d="M593,500.15c5.59,0.555,10.728,2.643,14.987,5.84L648,479.314V473h-55V500.15z"/>
		<rect x="593" y="413" fill="#EB6434" width="55" height="55"/>
		<polygon fill="#EB6434" points="713,468 770,468 770,422.018 713,460.019 		"/>
		<rect x="713" y="473" fill="#EB6434" width="57" height="55"/>
		<path fill="#EB6434" d="M713,408h41.973l9.48-6.32c1.708-1.139,3.638-1.681,5.547-1.679V353h-57V408z"/>
		<path fill="#EB6434" d="M593,559.85V588h55v-55h-28.149C618.443,547.173,607.173,558.443,593,559.85z"/>
		<rect x="713" y="290" fill="#EB6434" width="57" height="58"/>
		<rect x="713" y="533" fill="#EB6434" width="57" height="55"/>
		<rect x="653" y="290" fill="#EB6434" width="55" height="58"/>
		<rect x="653" y="353" fill="#EB6434" width="55" height="55"/>
		<polygon fill="#EB6434" points="653,468 664.973,468 708,439.314 708,413 653,413 		"/>
		<rect x="713" y="593" fill="#EB6434" width="57" height="57"/>
		<path fill="#EB6434" d="M563.879,515.258c-0.098,0.173-0.19,0.348-0.284,0.522C563.688,515.605,563.781,515.431,563.879,515.258z"
			/>
		<path fill="#EB6434" d="M560.974,522.434c-0.018,0.066-0.042,0.129-0.059,0.195L532,503.352V528h28.074
			C560.2,526.09,560.507,524.229,560.974,522.434z"/>
		<polygon fill="#EB6434" points="486.472,473 472,473 472,528 527,528 527,500.019 		"/>
		<rect x="532" y="593" fill="#EB6434" width="56" height="57"/>
		<path fill="#EB6434" d="M560.149,533H532v55h56v-28.074C573.361,558.961,561.59,547.504,560.149,533z"/>
		<rect x="472" y="593" fill="#EB6434" width="55" height="57"/>
		<path fill="#EB6434" d="M429.823,432.508c0.086-0.076,0.172-0.154,0.258-0.231C429.995,432.354,429.91,432.432,429.823,432.508z"
			/>
		<path fill="#EB6434" d="M427.987,434.01c0.066-0.05,0.127-0.107,0.193-0.158c-4.549,3.471-10.117,5.675-16.181,6.074V468h55
			v-7.981L427.987,434.01z"/>
		<rect x="593" y="593" fill="#EB6434" width="55" height="57"/>
		<rect x="472" y="533" fill="#EB6434" width="55" height="55"/>
		<path fill="#EB6434" d="M561.721,519.99c-0.057,0.16-0.106,0.324-0.16,0.484C561.614,520.314,561.664,520.15,561.721,519.99z"/>
		<path fill="#EB6434" d="M532,479.314l40.013,26.676c-0.057,0.042-0.107,0.091-0.163,0.133c4.543-3.457,10.101-5.65,16.15-6.049
			V473h-56V479.314z"/>
		<path fill="#EB6434" d="M570.339,507.359c-0.155,0.135-0.312,0.27-0.464,0.407C570.027,507.629,570.184,507.494,570.339,507.359z"
			/>
		<rect x="532" y="413" fill="#EB6434" width="56" height="55"/>
		<rect x="532" y="353" fill="#EB6434" width="56" height="55"/>
		<rect x="412" y="473" fill="#EB6434" width="55" height="55"/>
		<path fill="#EB6434" d="M562.7,517.568c-0.077,0.17-0.148,0.342-0.222,0.514C562.552,517.91,562.623,517.738,562.7,517.568z"/>
		<path fill="#EB6434" d="M565.245,513.07c-0.116,0.17-0.229,0.342-0.343,0.515C565.016,513.412,565.129,513.24,565.245,513.07z"/>
		<path fill="#EB6434" d="M568.052,509.565c0.144-0.153,0.29-0.305,0.437-0.456C568.342,509.261,568.195,509.412,568.052,509.565z"
			/>
		<path fill="#EB6434" d="M566.785,511.018c-0.133,0.162-0.264,0.326-0.394,0.492C566.521,511.344,566.652,511.18,566.785,511.018z"
			/>
	</g>
</g>
</svg>
