<?xml version="1.0" encoding="utf-8"?>
<!-- Generator: Adobe Illustrator 16.0.0, SVG Export Plug-In . SVG Version: 6.00 Build 0)  -->
<!DOCTYPE svg PUBLIC "-//W3C//DTD SVG 1.1//EN" "http://www.w3.org/Graphics/SVG/1.1/DTD/svg11.dtd">
<svg version="1.1" id="Layer_1" xmlns="http://www.w3.org/2000/svg" xmlns:xlink="http://www.w3.org/1999/xlink" x="0px" y="0px"
	 width="100%" height="100%" viewBox="0 0 1000 1000" enable-background="new 0 0 1000 1000" xml:space="preserve">
<circle fill="#70C3C3" cx="500" cy="500" r="500"/>
<path fill="#23373A" d="M750.001,340h-28.048c5.108-8.827,8.047-19.067,8.047-30c0-33.138-26.863-60-60-60
	c-27.304,0-50.332,18.244-57.6,43.202c-7.11-2.07-14.621-3.202-22.4-3.202h-15.16c9.574-14.302,15.16-31.498,15.16-50
	c0-49.706-40.294-90-90-90c-49.706,0-90,40.294-90,90c0,18.502,5.586,35.698,15.16,50H410c-7.779,0-15.291,1.132-22.401,3.202
	C380.332,268.244,357.303,250,330,250c-33.137,0-60,26.862-60,60c0,10.933,2.938,21.173,8.047,30h-28.047
	C227.908,340,210,357.908,210,380v150v10c0,22.092,17.909,40,40,40v200h130v70h240v-70h130V580c22.092,0,40-17.908,40-40v-10
	l0.001-150C790.001,357.908,772.092,340,750.001,340z"/>
<path fill="#EB6434" d="M359.899,307.65c-1.2-15.469-14.123-27.65-29.9-27.65c-16.568,0-30,13.432-30,30s13.432,30,30,30
	c2.083,0,4.118-0.213,6.082-0.617C341.261,326.891,349.516,316.005,359.899,307.65z"/>
<path fill="#F39D77" d="M670,280c-15.776,0-28.699,12.182-29.899,27.649c10.384,8.354,18.639,19.241,23.818,31.733
	c1.964,0.404,3.997,0.617,6.081,0.617c16.568,0,30-13.432,30-30S686.568,280,670,280z"/>
<path fill="#F39D77" d="M750,370h-80v200c0,27.614-22.386,50-50,50v130h100V550h30c5.523,0,10-4.478,10-10V380
	C760,374.478,755.523,370,750,370z"/>
<path fill="#EB6434" d="M380,750V620c-27.614,0-50-22.386-50-50V370h-80c-5.523,0-10,4.478-10,10v160c0,5.522,4.477,10,10,10h30v200
	H380z"/>
<path fill="#FFFFFF" d="M420,580h-40c-5.523,0-10-4.478-10-10l0-200c0-22.092,17.909-40,40-40h180c22.092,0,40,17.908,40,40v200
	c0,5.522-4.477,10-10,10h-40v230H420V580z"/>
<circle fill="#FFFFFF" cx="500" cy="240" r="50"/>
</svg>
