<?xml version="1.0" encoding="utf-8"?>
<!-- Generator: Adobe Illustrator 16.0.0, SVG Export Plug-In . SVG Version: 6.00 Build 0)  -->
<!DOCTYPE svg PUBLIC "-//W3C//DTD SVG 1.1//EN" "http://www.w3.org/Graphics/SVG/1.1/DTD/svg11.dtd">
<svg version="1.1" id="Layer_1" xmlns="http://www.w3.org/2000/svg" xmlns:xlink="http://www.w3.org/1999/xlink" x="0px" y="0px"
	 width="100%" height="100%" viewBox="0 0 1000 1000" enable-background="new 0 0 1000 1000" xml:space="preserve">
<path fill="#70C3C3" d="M500,1000c275,0,500-225,500-500C1000,225,775,0,500,0C225,0,0,225,0,500C0,775,225,1000,500,1000z"/>
<g>
	<path fill="#F8BB15" d="M325.582,500c0-19.952,3.202-39.129,9.104-57.059l-103.238-78.946C211.312,404.934,200,451.08,200,500
		c0,48.921,11.312,95.068,31.448,136.005l103.238-78.947C328.784,539.129,325.582,519.953,325.582,500z"/>
	<path fill="#EA4435" d="M231.448,363.996l103.238,78.946c23.82-72.354,91.777-124.337,172.29-124.337
		c43.257,0,82.324,15.348,113.022,40.465l89.303-89.302c-54.419-47.441-124.187-76.743-202.325-76.743
		C385.666,193.025,281.38,262.478,231.448,363.996z"/>
	<path fill="#547EBE" d="M758.138,444.186H643.72H506.977v118.607h164.651c-8.236,40.432-30.542,71.617-62.591,91.842l98.012,75.879
		C763.385,678.137,800,600.057,800,500c0-18.139-2.792-37.676-6.978-55.814H758.138z"/>
	<path fill="#34A852" d="M609.037,654.635c-27.677,17.467-62.618,26.762-102.061,26.762c-80.607,0-148.628-52.104-172.372-124.594
		l-103.198,79.119c49.916,101.564,154.227,171.055,275.57,171.055c74.874,0,146.417-26.576,200.072-76.463L609.037,654.635z"/>
</g>
</svg>
