<?xml version="1.0" encoding="utf-8"?>
<!-- Generator: Adobe Illustrator 16.0.0, SVG Export Plug-In . SVG Version: 6.00 Build 0)  -->
<!DOCTYPE svg PUBLIC "-//W3C//DTD SVG 1.1//EN" "http://www.w3.org/Graphics/SVG/1.1/DTD/svg11.dtd">
<svg version="1.1" id="Layer_1" xmlns="http://www.w3.org/2000/svg" xmlns:xlink="http://www.w3.org/1999/xlink" x="0px" y="0px"
	 width="100%" height="100%" viewBox="0 0 1000 1000" enable-background="new 0 0 1000 1000" xml:space="preserve">
<path fill="#333333" d="M687.553,566.555"/>
<g>
	<path fill="#70C3C3" d="M500,1000c274.999,0,500-225.001,500-500C1000,225,774.999,0,500,0C225,0,0,225,0,500
		C0,774.999,225,1000,500,1000z"/>
	<path fill="#23373A" d="M590,742.133c0-55.229,44.771-100,100-100c10.452,0,20.529,1.606,30,4.581V292.133
		c0-27.614-22.385-50-50-50h-80c0-11.046-8.954-20-20-20h-18.047c5.108-8.827,8.047-19.067,8.047-30c0-33.137-26.863-60-60-60
		s-60,26.863-60,60c0,10.933,2.938,21.173,8.047,30H430c-11.046,0-20,8.954-20,20h-80c-27.613,0-50,22.386-50,50v430
		c0,27.614,22.387,50,50,50h264.581C591.606,762.662,590,752.586,590,742.133z M500,222.133c-16.568,0-30-13.432-30-30
		s13.432-30,30-30s30,13.432,30,30S516.568,222.133,500,222.133z"/>
	<circle fill="#EB6434" cx="690" cy="742.133" r="100"/>
	<path fill="#FFFFFF" d="M680,642.629V292.133c0-5.523-4.477-10-10-10h-80c0,11.046-8.954,20-20,20H430c-11.046,0-20-8.954-20-20
		h-80c-5.523,0-10,4.477-10,10v430c0,5.523,4.477,10,10,10h260.496C595.188,684.889,632.757,647.32,680,642.629z"/>
	<circle fill="#EB6434" cx="405" cy="407.133" r="35"/>
	<circle fill="#EB6434" cx="405" cy="517.133" r="35"/>
	<circle fill="#EB6434" cx="405" cy="627.133" r="35"/>
	<path fill="#EB6434" d="M615,422.133c8.284,0,15-6.716,15-15s-6.716-15-15-15H475c-8.284,0-15,6.716-15,15s6.716,15,15,15H615z"/>
	<path fill="#EB6434" d="M615,532.133c8.284,0,15-6.716,15-15s-6.716-15-15-15H475c-8.284,0-15,6.716-15,15s6.716,15,15,15H615z"/>
	<path fill="#EB6434" d="M615,642.133c8.284,0,15-6.716,15-15s-6.716-15-15-15H475c-8.284,0-15,6.716-15,15s6.716,15,15,15H615z"/>
	<path fill="#FFFFFF" d="M719.166,742.133c0,16.109-13.058,29.166-29.166,29.166s-29.166-13.057-29.166-29.166
		c0-16.107,13.058-29.166,29.166-29.166S719.166,726.025,719.166,742.133z M716.25,787.6c8.817-5.09,19.186-5.049,27.656-0.811
		c4.977-6.002,8.97-12.848,11.733-20.291c-7.913-5.215-13.14-14.178-13.14-24.365c0-10.187,5.227-19.148,13.14-24.364
		c-2.764-7.443-6.757-14.29-11.733-20.29c-8.471,4.238-18.839,4.279-27.656-0.812c-8.819-5.092-13.967-14.095-14.53-23.552
		c-3.812-0.643-7.726-0.982-11.72-0.982s-7.908,0.34-11.72,0.982c-0.563,9.457-5.711,18.46-14.53,23.552
		c-8.817,5.091-19.186,5.05-27.656,0.812c-4.978,6-8.97,12.847-11.733,20.29c7.913,5.216,13.14,14.178,13.14,24.364
		c0,10.188-5.227,19.15-13.14,24.365c2.764,7.443,6.757,14.289,11.734,20.291c8.47-4.238,18.838-4.279,27.655,0.811
		c8.818,5.092,13.967,14.094,14.53,23.551c3.812,0.643,7.725,0.982,11.72,0.982c3.994,0,7.908-0.34,11.72-0.982
		C702.283,801.693,707.431,792.691,716.25,787.6z"/>
</g>
</svg>
