<?xml version="1.0" encoding="utf-8"?>
<!-- Generator: Adobe Illustrator 16.0.0, SVG Export Plug-In . SVG Version: 6.00 Build 0)  -->
<!DOCTYPE svg PUBLIC "-//W3C//DTD SVG 1.1//EN" "http://www.w3.org/Graphics/SVG/1.1/DTD/svg11.dtd">
<svg version="1.1" id="Layer_1" xmlns="http://www.w3.org/2000/svg" xmlns:xlink="http://www.w3.org/1999/xlink" x="0px" y="0px"
	 width="100%" height="100%" viewBox="0 0 1000 1000" enable-background="new 0 0 1000 1000" xml:space="preserve">
<path fill="#70C3C3" d="M500,1000c274.999,0,500-225.001,500-500C1000,225,774.999,0,500,0C225,0,0,225,0,500
	C0,774.999,225,1000,500,1000z"/>
<path fill="#23373A" d="M690,600c11.046,0,20-8.954,20-20s-8.954-20-20-20H350c-11.046,0-20,8.954-20,20s8.954,20,20,20H690z"/>
<path fill="#23373A" d="M710,540c11.046,0,20-8.954,20-20s-8.954-20-20-20H340c-11.046,0-20,8.954-20,20s8.954,20,20,20H710z"/>
<path fill="#23373A" d="M730,480c11.046,0,20-8.954,20-20s-8.954-20-20-20H330c-11.046,0-20,8.954-20,20s8.954,20,20,20H730z"/>
<path fill="#23373A" d="M706.433,650.002c0-11.046-8.954-20.002-20-20.002H324.098l-54.375-284.164
	C267.707,336.378,259.315,330,250.007,330c-0.002,0-0.005,0-0.007,0h-60c-11.046,0-20,8.954-20,20s8.954,20,20,20h43.629
	l53.031,277.141c-0.134,0.938-0.228,1.887-0.228,2.86c0,11.046,8.954,19.999,20,19.999h26.746c-4.321,9-6.746,19.264-6.746,30.002
	c0,38.66,31.341,70.001,70,70.001c38.66,0,70-31.341,70-70.001c0-10.738-2.425-21.002-6.746-30.002h103.491
	c-4.32,9-6.745,19.264-6.745,30.002c0,38.66,31.341,70.001,70,70.001c38.66,0,70-31.339,70-69.999
	c0-10.844-2.467-21.109-6.867-30.271C699.119,668.227,706.433,659.979,706.433,650.002z"/>
<circle fill="#EB6434" cx="396.433" cy="700.004" r="30"/>
<circle fill="#EB6434" cx="626.433" cy="700.004" r="30"/>
<path fill="#23373A" d="M750,380h-80v-80c0-27.613-22.386-50-50-50H450c-27.614,0-50,22.387-50,50v80h-80c-11.046,0-20,8.954-20,20
	s8.954,20,20,20h430c11.046,0,20-8.954,20-20S761.046,380,750,380z"/>
<path fill="#FFFFFF" d="M630,380v-80c0-5.523-4.477-10-10-10H450c-5.523,0-10,4.477-10,10v80H630z"/>
</svg>
