<?xml version="1.0" encoding="utf-8"?>
<!-- Generator: Adobe Illustrator 16.0.0, SVG Export Plug-In . SVG Version: 6.00 Build 0)  -->
<!DOCTYPE svg PUBLIC "-//W3C//DTD SVG 1.1//EN" "http://www.w3.org/Graphics/SVG/1.1/DTD/svg11.dtd">
<svg version="1.1" id="Layer_1" xmlns="http://www.w3.org/2000/svg" xmlns:xlink="http://www.w3.org/1999/xlink" x="0px" y="0px"
	 width="100%" height="100%" viewBox="0 0 1000 1000" enable-background="new 0 0 1000 1000" xml:space="preserve">
<g>
	<circle fill="#70C3C3" cx="500" cy="500" r="500"/>
	<path fill="#23373A" d="M700,200c0,38.66,31.34,70,70,70v290c0,160-220,290-270,300c-50-10-270-140-270-300l0-290
		c38.66,0,70-31.34,70-70H700z"/>
	<path fill="#7F8386" d="M321.68,240c-10.079,23.069-28.61,41.601-51.68,51.68V560c0,150,200,250,230,260
		c30.001-10,230.001-110,230.001-260V291.68c-23.07-10.079-41.602-28.61-51.68-51.68H321.68z"/>
	<path fill="#FFFFFF" d="M500,809.361c-18.239-7.072-70.571-33.288-119.831-74.529c-29.713-24.876-53.258-51-69.98-77.647
		C290.157,625.264,280,592.566,280,560V298.008c20.709-10.56,37.448-27.299,48.008-48.008h343.985
		c10.559,20.709,27.298,37.448,48.008,48.008V560c0,32.566-10.157,65.264-30.189,97.185c-16.723,26.647-40.267,52.771-69.98,77.647
		C570.571,776.073,518.239,802.289,500,809.361z"/>
	<path fill="#EB6434" d="M400,610c-11.046,0-20-8.953-20-20V480c0-11.047,8.954-20,20-20h10v-30c0-49.705,40.294-90,90-90
		c49.706,0,90,40.295,90,90v30h10c11.046,0,20,8.953,20,20v110c0,11.047-8.954,20-20,20H400z M550,430c0-27.614-22.386-50-50-50
		s-50,22.386-50,50v30h100V430z"/>
</g>
</svg>
