<?xml version="1.0" encoding="utf-8"?>
<!-- Generator: Adobe Illustrator 16.0.0, SVG Export Plug-In . SVG Version: 6.00 Build 0)  -->
<!DOCTYPE svg PUBLIC "-//W3C//DTD SVG 1.1//EN" "http://www.w3.org/Graphics/SVG/1.1/DTD/svg11.dtd">
<svg version="1.1" id="Layer_1" xmlns="http://www.w3.org/2000/svg" xmlns:xlink="http://www.w3.org/1999/xlink" x="0px" y="0px"
	 width="100%" height="100%" viewBox="0 0 1000 1000" enable-background="new 0 0 1000 1000" xml:space="preserve">
<g>
	<path fill="#23373A" d="M520.354,528.497c0-3.132,0-9.395-3.132-9.395c-3.131-3.131-9.394-6.262-15.656-9.394
		c-15.656-3.131-25.05-9.394-34.443-15.656c-6.263-6.263-9.394-12.524-9.394-21.919c0-9.394,3.131-15.656,9.394-21.918
		c6.263-6.263,15.656-9.395,28.182-9.395v-18.787h15.656v15.656c12.524,0,21.918,6.263,28.181,12.525
		c6.263,6.262,9.394,15.656,9.394,25.05l0,0h-28.181c0-6.263-3.132-9.394-6.263-12.525c-3.131-3.131-9.394-6.263-12.525-6.263
		c-6.262,0-9.394,0-12.524,3.132c-3.132,3.131-3.132,6.263-3.132,9.394s0,6.263,3.132,9.394c3.131,3.132,9.394,6.263,15.656,9.394
		c15.656,3.132,25.05,9.395,34.443,15.656c6.263,6.263,9.394,12.525,9.394,25.051c0,9.394-3.131,18.787-9.394,21.918
		c-6.263,6.263-15.656,9.395-28.181,9.395v15.656h-15.656V559.81c-12.525,0-21.919-3.132-31.314-9.395
		c-9.391-6.262-12.523-15.656-12.523-28.181l0,0h28.18c0,6.263,3.133,12.524,6.264,15.656c3.132,3.131,9.395,3.131,15.656,3.131
		c6.263,0,12.525,0,15.656-3.131C517.222,534.759,520.354,531.628,520.354,528.497z"/>
</g>
<circle fill="#70C3C3" cx="500" cy="500" r="500"/>
<path fill="#23373A" d="M810,648.75c0,27.615-22.386,50-50,50H240c-27.614,0-50-22.385-50-50v-300c0-27.613,22.386-50,50-50h520
	c27.614,0,50,22.387,50,50V648.75z"/>
<path fill="#EB6434" d="M230,648.75c0,5.523,4.477,10,10,10h520c5.523,0,10-4.477,10-10v-300c0-5.523-4.477-10-10-10H240
	c-5.523,0-10,4.477-10,10V648.75z"/>
<path fill="#EB6434" d="M760,338.75h-40h-8.998H288.998H280h-40c-5.523,0-10,4.477-10,10v20v28.998v202.004v28.998v20
	c0,5.523,4.477,10,10,10h40h8.998h422.004H720h40c5.523,0,10-4.477,10-10v-20v-28.998V397.748V368.75v-20
	C770,343.227,765.523,338.75,760,338.75z"/>
<path fill="#FAFDFF" d="M710,348.75H290c0,27.613-22.386,50-50,50v200c27.614,0,50,22.387,50,50h420c0-27.613,22.386-50,50-50v-200
	C732.386,398.75,710,376.363,710,348.75z M340,538.75c-22.091,0-40-17.908-40-40s17.909-40,40-40s40,17.908,40,40
	S362.091,538.75,340,538.75z M500,598.75c-55.228,0-100-44.771-100-100s44.772-100,100-100c55.229,0,100,44.771,100,100
	S555.229,598.75,500,598.75z M660,538.75c-22.091,0-40-17.908-40-40s17.909-40,40-40s40,17.908,40,40S682.091,538.75,660,538.75z"/>
<g>
	<path fill="#FAFDFF" d="M520.354,528.497c0-3.132,0-9.395-3.132-9.395c-3.131-3.131-9.394-6.262-15.656-9.394
		c-15.656-3.131-25.05-9.394-34.443-15.656c-6.263-6.263-9.394-12.524-9.394-21.919c0-9.394,3.131-15.656,9.394-21.918
		c6.263-6.263,15.656-9.395,28.182-9.395v-18.787h15.656v15.656c12.524,0,21.918,6.263,28.181,12.525
		c6.263,6.262,9.394,15.656,9.394,25.05l0,0h-28.181c0-6.263-3.132-9.394-6.263-12.525c-3.131-3.131-9.394-6.263-12.525-6.263
		c-6.262,0-9.394,0-12.524,3.132c-3.132,3.131-3.132,6.263-3.132,9.394s0,6.263,3.132,9.394c3.131,3.132,9.394,6.263,15.656,9.394
		c15.656,3.132,25.05,9.395,34.443,15.656c6.263,6.263,9.394,12.525,9.394,25.051c0,9.394-3.131,18.787-9.394,21.918
		c-6.263,6.263-15.656,9.395-28.181,9.395v15.656h-15.656V559.81c-12.525,0-21.919-3.132-31.314-9.395
		c-9.391-6.262-12.523-15.656-12.523-28.181l0,0h28.18c0,6.263,3.133,12.524,6.264,15.656c3.132,3.131,9.395,3.131,15.656,3.131
		c6.263,0,12.525,0,15.656-3.131C517.222,534.759,520.354,531.628,520.354,528.497z"/>
</g>
</svg>
