<?xml version="1.0" encoding="utf-8"?>
<!-- Generator: Adobe Illustrator 16.0.0, SVG Export Plug-In . SVG Version: 6.00 Build 0)  -->
<!DOCTYPE svg PUBLIC "-//W3C//DTD SVG 1.1//EN" "http://www.w3.org/Graphics/SVG/1.1/DTD/svg11.dtd">
<svg version="1.1" id="Layer_1" xmlns="http://www.w3.org/2000/svg" xmlns:xlink="http://www.w3.org/1999/xlink" x="0px" y="0px"
	 width="100%" height="100%" viewBox="0 0 1000 1000" enable-background="new 0 0 1000 1000" xml:space="preserve">
<circle fill="#70C3C3" cx="500.047" cy="500.692" r="500"/>
<path fill="#23373A" d="M820.477,315.692c-46.943-81.31-150.914-109.169-232.225-62.225l-129.904,75
	c-15.07,8.701-28.3,19.365-39.562,31.477c-16.12,3.697-31.97,9.822-47.041,18.523l-129.904,75
	c-81.31,46.944-109.168,150.915-62.224,232.225c46.944,81.311,150.915,109.169,232.224,62.225l129.904-75
	c15.07-8.701,28.301-19.365,39.563-31.477c16.119-3.697,31.971-9.822,47.041-18.523l129.902-75
	C839.563,500.973,867.422,397.003,820.477,315.692z M341.842,626.673c-14.349,8.284-32.696,3.368-40.98-10.98
	s-3.368-32.696,10.98-40.98l71.568-41.32c3.368,9.301,7.596,18.436,12.714,27.301s10.915,17.094,17.286,24.66L341.842,626.673z
	 M688.252,426.673l-71.568,41.32c-3.367-9.301-7.596-18.436-12.713-27.301c-5.119-8.865-10.916-17.094-17.287-24.66l71.568-41.32
	c14.35-8.284,32.697-3.368,40.98,10.98C707.518,400.041,702.602,418.389,688.252,426.673z"/>
<path fill="#EB6434" d="M551.311,436.454l-22.961,13.258c-14.35,8.284-19.266,26.632-10.982,40.98
	c1.813,3.14,3.355,6.36,4.633,9.636c12.354,31.666,0.088,68.468-30.254,85.986l-129.904,75c-33.48,19.33-76.292,7.858-95.622-25.622
	s-7.859-76.292,25.622-95.622l82.303-47.518c-2.518-25.415,0.778-50.951,9.346-74.678l-121.649,70.234
	c-62.178,35.898-83.481,115.405-47.583,177.583s115.405,83.481,177.583,47.583l129.904-75
	c62.178-35.898,83.482-115.405,47.584-177.583C564.166,451.75,558.098,443.657,551.311,436.454z"/>
<path fill="#FFFFFF" d="M448.783,564.931l22.962-13.258c14.349-8.284,19.266-26.632,10.98-40.98
	c-1.813-3.14-3.354-6.359-4.631-9.635c-12.354-31.666-0.089-68.469,30.254-85.987l129.902-75
	c33.48-19.33,76.293-7.858,95.623,25.622s7.857,76.292-25.623,95.622l-82.303,47.518c2.518,25.416-0.777,50.952-9.346,74.678
	l121.648-70.234c62.178-35.898,83.482-115.405,47.584-177.583s-115.406-83.481-177.584-47.583l-129.904,75
	c-62.178,35.898-83.481,115.405-47.583,177.583C435.928,549.636,441.998,557.728,448.783,564.931z"/>
</svg>
