<?xml version="1.0" encoding="utf-8"?>
<!-- Generator: Adobe Illustrator 16.0.0, SVG Export Plug-In . SVG Version: 6.00 Build 0)  -->
<!DOCTYPE svg PUBLIC "-//W3C//DTD SVG 1.1//EN" "http://www.w3.org/Graphics/SVG/1.1/DTD/svg11.dtd">
<svg version="1.1" id="Layer_1" xmlns="http://www.w3.org/2000/svg" xmlns:xlink="http://www.w3.org/1999/xlink" x="0px" y="0px"
	 width="100%" height="100%" viewBox="0 0 1000 1000" enable-background="new 0 0 1000 1000" xml:space="preserve">
<circle fill="#70C3C3" cx="500" cy="499.999" r="500"/>
<path fill="#23373A" d="M810,620c0,27.615-22.386,50-50,50H240c-27.614,0-50-22.385-50-50V299.999c0-27.613,22.386-50,50-50h520
	c27.614,0,50,22.387,50,50V620z"/>
<path fill="#FFFFFF" d="M230,620c0,5.523,4.477,10,10,10h520c5.523,0,10-4.477,10-10V299.999c0-5.523-4.477-10-10-10H240
	c-5.523,0-10,4.477-10,10V620z"/>
<path fill="#EB6434" d="M550,459.999C550,487.614,527.614,510,500,510s-50-22.386-50-50.001c0-27.613,22.386-50,50-50
	S550,432.386,550,459.999z M545,537.943c15.115-8.727,32.889-8.656,47.411-1.391c8.531-10.287,15.376-22.023,20.114-34.783
	C598.959,492.827,590,477.464,590,459.999c0-17.463,8.959-32.826,22.525-41.768c-4.738-12.76-11.583-24.496-20.114-34.783
	c-14.522,7.266-32.296,7.336-47.411-1.391c-15.118-8.729-23.943-24.162-24.909-40.375c-6.534-1.102-13.244-1.684-20.091-1.684
	s-13.557,0.582-20.09,1.684c-0.966,16.213-9.792,31.646-24.91,40.375c-15.115,8.727-32.889,8.656-47.411,1.391
	c-8.532,10.287-15.375,22.023-20.114,34.783C401.041,427.173,410,442.536,410,459.999c0,17.465-8.959,32.828-22.525,41.771
	c4.738,12.76,11.583,24.496,20.114,34.783c14.522-7.266,32.296-7.336,47.411,1.391c15.118,8.729,23.943,24.16,24.909,40.373
	C486.443,579.418,493.153,580,500,580c6.847,0,13.557-0.582,20.091-1.684C521.057,562.104,529.882,546.672,545,537.943z"/>
<path fill="#23373A" d="M850,700v10c0,27.615-22.387,50-50,50H200c-27.613,0-50-22.385-50-50v-10"/>
<path fill="#EB6434" d="M545,740c8.284,0,15-6.715,15-15c0-8.283-6.716-15-15-15h-90c-8.284,0-15,6.717-15,15
	c0,8.285,6.716,15,15,15H545z"/>
<path fill="#7F8386" d="M150,700c0-5.521,4.477-10,10-10h680c5.522,0,10,4.479,10,10H150z"/>
</svg>
