<?xml version="1.0" encoding="utf-8"?>
<!-- Generator: Adobe Illustrator 16.0.0, SVG Export Plug-In . SVG Version: 6.00 Build 0)  -->
<!DOCTYPE svg PUBLIC "-//W3C//DTD SVG 1.1//EN" "http://www.w3.org/Graphics/SVG/1.1/DTD/svg11.dtd">
<svg version="1.1" id="Layer_1" xmlns="http://www.w3.org/2000/svg" xmlns:xlink="http://www.w3.org/1999/xlink" x="0px" y="0px"
	 width="100%" height="100%" viewBox="0 0 1000 1000" enable-background="new 0 0 1000 1000" xml:space="preserve">
<path fill="#70C3C3" d="M500.313,1000c274.999,0,500-225.001,500-500c0-275-225.001-500-500-500c-275,0-500,225-500,500
	C0.313,774.999,225.313,1000,500.313,1000z"/>
<path fill="#333333" d="M716.192,566.422"/>
<path fill="#23373A" d="M410.313,312v-20c0-27.614,22.386-50,50-50h20c27.614,0,50,22.386,50,50v20H410.313z M560.313,312v-20
	c0-44.182-35.817-80-80-80h-20c-44.183,0-80,35.818-80,80v20h-170c-27.614,0-50,22.387-50,50v320c0,27.615,22.386,50,50,50h231.002
	c4.633,22.823,24.809,40,48.998,40h280c27.614,0,50-22.385,50-50V542c0-24.188-17.178-44.365-40-48.998V362
	c0-27.613-22.386-50-50-50H560.313z"/>
<g>
	<path fill="#EB6434" d="M440.313,542c0-27.613,22.386-50,50-50h80v-20c0-27.614,22.386-50,50-50h20c27.614,0,50,22.386,50,50v20h50
		V362c0-5.523-4.477-10-10-10h-520c-5.523,0-10,4.477-10,10v320c0,5.523,4.477,10,10,10h230V542z"/>
	<path fill="#EB6434" d="M640.313,452h-20c-11.046,0-20,8.955-20,20v20h60v-20C660.313,460.955,651.358,452,640.313,452z"/>
</g>
<path fill="#FFFFFF" d="M480.313,722c0,5.523,4.477,10,10,10h280c5.523,0,10-4.477,10-10V542c0-5.523-4.477-10-10-10h-280
	c-5.523,0-10,4.477-10,10V722z"/>
</svg>
