<?xml version="1.0" encoding="utf-8"?>
<!-- Generator: Adobe Illustrator 16.0.0, SVG Export Plug-In . SVG Version: 6.00 Build 0)  -->
<!DOCTYPE svg PUBLIC "-//W3C//DTD SVG 1.1//EN" "http://www.w3.org/Graphics/SVG/1.1/DTD/svg11.dtd">
<svg version="1.1" id="Layer_1" xmlns="http://www.w3.org/2000/svg" xmlns:xlink="http://www.w3.org/1999/xlink" x="0px" y="0px"
	 width="100%" height="100%" viewBox="0 0 1000 1000" enable-background="new 0 0 1000 1000" xml:space="preserve">
<path fill="#70C3C3" d="M500,1000c275,0,500-225,500-500S775,0,500,0S0,225,0,500S225,1000,500,1000z"/>
<g>
	<g>
		<path fill="#23373A" d="M150,380.958c5.713,0,5.713,0,8.572,0c20-2.857,34.286,2.857,42.857,22.856
			C230,458.101,261.43,512.386,290.001,566.671c11.428,20.001,25.713,17.144,42.857,20.001c17.142,0,22.856-5.715,28.571-20.001
			c28.572-54.285,57.143-108.57,85.715-162.856c14.285-28.571,17.142-28.571,51.428-22.856
			c-14.287,25.714-28.573,51.428-40.001,77.143c-22.857,45.714-48.571,88.571-71.428,134.286
			c-8.572,19.999-25.714,25.714-45.715,28.57c-42.857,5.714-71.429-11.429-88.57-51.428
			c-28.572-60.001-62.856-114.285-94.286-171.428C155.713,392.387,152.857,389.528,150,380.958z"/>
	</g>
	<path fill="#23373A" d="M661.429,498.102c-40.001-40.001-80-77.144-122.857-117.144c25.715-2.857,48.571-2.857,68.571,19.999
		c68.572,68.573,140,137.144,211.43,202.856c2.855,2.858,8.571,5.715,14.284,11.429c-28.571,2.858-48.57,2.858-65.714-17.142
		c-25.713-28.571-54.285-51.429-80-77.144c-28.57,25.715-54.286,48.572-80,77.144c-20,22.856-40,20-68.571,17.142
		C581.429,575.243,621.428,538.101,661.429,498.102z"/>
	<path fill="#EB6434" d="M767.143,475.243c-11.428-11.429-17.143-17.143-28.571-25.714c22.857-22.856,45.715-45.715,71.428-65.714
		c11.429-8.572,31.431-2.857,40.001-5.715C824.286,409.529,798.572,440.958,767.143,475.243z"/>
</g>
</svg>
