<?xml version="1.0" encoding="utf-8"?>
<!-- Generator: Adobe Illustrator 18.0.0, SVG Export Plug-In . SVG Version: 6.00 Build 0)  -->
<!DOCTYPE svg PUBLIC "-//W3C//DTD SVG 1.1//EN" "http://www.w3.org/Graphics/SVG/1.1/DTD/svg11.dtd">
<svg version="1.1" id="Capa_1" xmlns="http://www.w3.org/2000/svg" xmlns:xlink="http://www.w3.org/1999/xlink" x="0px" y="0px"
	 viewBox="0 0 41.4 42.7" enable-background="new 0 0 41.4 42.7" xml:space="preserve">
<g>
	<path fill="#1D3E81" d="M18.3,24.7c1.4,0.2,2.8,0.6,4.2,1.1c-0.8,1.1-1.5,2.2-1.9,3.5c-0.4,1.3-0.6,2.6-0.6,3.9
		c0,0.6,0.1,1.2,0.2,1.8H0.2v-3.6c0.3-2.4,2.1-4.2,5.4-5.4s6.3-1.8,8.9-1.8C15.6,24.3,16.9,24.4,18.3,24.7z M19.6,8.5
		c1.3,1.3,2,3,2,5.1c0,2-0.7,3.7-2,5.1c-1.3,1.3-3,2-5,2s-3.7-0.7-5-2c-1.3-1.3-2-3-2-5.1c0-2,0.7-3.7,2-5.1s3-2,5-2.1
		C16.6,6.4,18.3,7.1,19.6,8.5z M34.3,24.3c0.2,0,0.4,0.1,0.4,0.3l0.3,2.4c0.5,0.2,1,0.5,1.5,0.8l2.2-0.8c0.3-0.1,0.5,0,0.6,0.2
		l1.8,3.1c0.1,0.2,0.1,0.4-0.1,0.6l-1.9,1.5c0.1,0.3,0.1,0.6,0.1,0.9c0,0.3,0,0.6-0.1,0.9l1.9,1.4c0.2,0.2,0.2,0.4,0.1,0.6l-1.8,3.1
		c-0.2,0.2-0.4,0.3-0.6,0.3l-2.2-0.9c-0.5,0.3-1,0.6-1.5,0.8l-0.3,2.4c-0.1,0.2-0.2,0.3-0.4,0.3h-3.6c-0.3,0-0.4-0.1-0.5-0.3
		l-0.3-2.4c-0.5-0.2-1-0.5-1.5-0.8l-2.2,0.9c-0.2,0.1-0.4,0-0.6-0.3l-1.8-3.1c-0.1-0.2-0.1-0.4,0.1-0.6l1.9-1.4
		c-0.1-0.3-0.1-0.6-0.1-0.9c0-0.3,0-0.6,0.1-0.9l-1.9-1.5c-0.2-0.2-0.2-0.4-0.1-0.6l1.8-3.1C25.8,27,26,27,26.2,27l2.2,0.8
		c0.5-0.3,1-0.6,1.5-0.8l0.3-2.4c0.1-0.2,0.2-0.3,0.5-0.3H34.3z M30.6,31.4c-0.5,0.5-0.8,1.1-0.8,1.9c0,0.8,0.3,1.4,0.8,1.9
		c0.5,0.5,1.1,0.8,1.9,0.8c0.8,0,1.4-0.3,1.9-0.8c0.5-0.5,0.8-1.1,0.8-1.9c0-0.8-0.3-1.4-0.8-1.9c-0.5-0.5-1.1-0.8-1.9-0.8
		C31.7,30.6,31.1,30.9,30.6,31.4z"/>
</g>
</svg>
