<?xml version="1.0" encoding="utf-8"?>
<!-- Generator: Adobe Illustrator 18.0.0, SVG Export Plug-In . SVG Version: 6.00 Build 0)  -->
<!DOCTYPE svg PUBLIC "-//W3C//DTD SVG 1.1//EN" "http://www.w3.org/Graphics/SVG/1.1/DTD/svg11.dtd">
<svg version="1.1" id="Capa_1" xmlns="http://www.w3.org/2000/svg" xmlns:xlink="http://www.w3.org/1999/xlink" x="0px" y="0px"
	 viewBox="0 0 40 42.7" enable-background="new 0 0 40 42.7" xml:space="preserve">
<g>
	<path fill="#1D3E81" d="M30.2,26.4c2.7,1.3,4.1,3,4.2,5v3.6H5.6v-3.6c0.1-2,1.5-3.7,4.2-5s6.1-2,10.2-2.1
		C24.1,24.4,27.5,25.1,30.2,26.4z M20.9,1c0.6,0,0.8,0.3,0.8,0.8v5.4h1.8V2.8c0.2-0.1,0.8,0.4,2,1.4c1.2,1,1.8,2.8,2,5.3
		c0.1-0.1,0.3,0.1,0.6,0.3c0.4,0.3,0.6,0.9,0.7,1.9H11c0.1-1,0.3-1.7,0.7-1.9c0.4-0.3,0.6-0.4,0.7-0.3c0.2-2.5,0.8-4.3,2-5.3
		s1.8-1.5,2-1.4v4.5h1.8V1.9c0-0.6,0.3-0.8,0.8-0.8H20.9z M27.1,13.6c-0.1,2-0.8,3.7-2.1,5s-3,2-5,2s-3.7-0.7-5-2s-2-3-2.1-5H27.1z"
		/>
</g>
</svg>
