<?xml version="1.0" encoding="utf-8"?>
<!-- Generator: Adobe Illustrator 18.0.0, SVG Export Plug-In . SVG Version: 6.00 Build 0)  -->
<!DOCTYPE svg PUBLIC "-//W3C//DTD SVG 1.1//EN" "http://www.w3.org/Graphics/SVG/1.1/DTD/svg11.dtd">
<svg version="1.1" id="Capa_1" xmlns="http://www.w3.org/2000/svg" xmlns:xlink="http://www.w3.org/1999/xlink" x="0px" y="0px"
	 viewBox="0 0 40 42.7" enable-background="new 0 0 40 42.7" xml:space="preserve">
<g>
	<path fill="#1D3E81" d="M7.4,34h22.4v2.8H7.4c-0.8,0-1.4-0.3-2-0.9s-0.8-1.2-0.9-2V11.5h2.8V34z M34.6,6.7c0.5,0.5,0.8,1.2,0.9,2
		v19.7c0,0.8-0.3,1.4-0.9,2c-0.5,0.5-1.2,0.8-2,0.8H13c-0.8,0-1.4-0.3-2-0.8c-0.5-0.5-0.8-1.2-0.8-2V8.7c0-0.8,0.3-1.4,0.8-2
		s1.2-0.8,2-0.9h19.7C33.4,5.9,34.1,6.2,34.6,6.7z M32.6,8.7H13v19.7h19.7V8.7z M22.8,14.3H20v-2.8h5.6v14h-2.8V14.3z"/>
</g>
</svg>
