<?xml version="1.0" encoding="utf-8"?>
<!-- Generator: Adobe Illustrator 18.0.0, SVG Export Plug-In . SVG Version: 6.00 Build 0)  -->
<!DOCTYPE svg PUBLIC "-//W3C//DTD SVG 1.1//EN" "http://www.w3.org/Graphics/SVG/1.1/DTD/svg11.dtd">
<svg version="1.1" id="Capa_1" xmlns="http://www.w3.org/2000/svg" xmlns:xlink="http://www.w3.org/1999/xlink" x="0px" y="0px"
	 viewBox="0 0 475.1 475.1" enable-background="new 0 0 475.1 475.1" xml:space="preserve">
<g>
	<g>
		<path fill="#999999" d="M237.5,328.9c25.1,0,46.6-8.9,64.5-26.8c17.9-17.9,26.8-39.4,26.8-64.5V91.4c0-25.1-8.9-46.6-26.8-64.5
			C284.2,9,262.7,0,237.5,0c-25.1,0-46.6,9-64.5,26.8c-17.9,17.9-26.8,39.4-26.8,64.5v146.2c0,25.1,8.9,46.6,26.8,64.5
			C190.9,320,212.4,328.9,237.5,328.9z"/>
		<path fill="#999999" d="M396.6,188.1c-3.6-3.6-7.9-5.4-12.8-5.4c-4.9,0-9.2,1.8-12.8,5.4c-3.6,3.6-5.4,7.9-5.4,12.8v36.5
			c0,35.2-12.5,65.3-37.5,90.4c-25,25-55.1,37.5-90.4,37.5c-35.2,0-65.3-12.5-90.4-37.5c-25-25-37.5-55.1-37.5-90.4V201
			c0-4.9-1.8-9.2-5.4-12.8c-3.6-3.6-7.9-5.4-12.8-5.4s-9.2,1.8-12.8,5.4c-3.6,3.6-5.4,7.9-5.4,12.8v36.5c0,42.1,14,78.7,42.1,109.8
			c28.1,31.1,62.8,49,104.1,53.5v37.7h-73.1c-4.9,0-9.2,1.8-12.8,5.4c-3.6,3.6-5.4,7.9-5.4,12.8c0,4.9,1.8,9.2,5.4,12.8
			c3.6,3.6,7.9,5.4,12.8,5.4h182.7c4.9,0,9.2-1.8,12.8-5.4c3.6-3.6,5.4-7.9,5.4-12.8c0-4.9-1.8-9.2-5.4-12.8
			c-3.6-3.6-7.9-5.4-12.8-5.4h-73.1v-37.7c41.3-4.6,76-22.4,104.1-53.5C388,316.2,402,279.6,402,237.5V201
			C402,196,400.2,191.8,396.6,188.1z"/>
	</g>
</g>
</svg>
