<?xml version="1.0" encoding="utf-8"?>
<!-- Generator: Adobe Illustrator 16.0.0, SVG Export Plug-In . SVG Version: 6.00 Build 0)  -->
<!DOCTYPE svg PUBLIC "-//W3C//DTD SVG 1.1//EN" "http://www.w3.org/Graphics/SVG/1.1/DTD/svg11.dtd">
<svg version="1.1" id="Layer_1" xmlns="http://www.w3.org/2000/svg" xmlns:xlink="http://www.w3.org/1999/xlink" x="0px" y="0px"
	 width="154px" height="154px" viewBox="0 0 154 154" enable-background="new 0 0 154 154" xml:space="preserve">
<g>
	<path fill="#FFFFFF" d="M105.108,115.544c2.205,0,3.991-1.787,3.991-3.991V42.448c0-2.205-1.786-3.992-3.991-3.992H46.562
		c-2.205,0-3.992,1.787-3.992,3.992v59.79l13.306,13.306H105.108z"/>
	<path fill="#519341" d="M51.884,102.238H42.57l13.306,13.306v-9.314C55.875,104.025,54.089,102.238,51.884,102.238z"/>
	<path fill="#519341" d="M114.423,45.108H42.57V69.06h71.853c0.733,0,1.33-0.596,1.33-1.33v-21.29
		C115.753,45.705,115.156,45.108,114.423,45.108z"/>
	<path fill="#64AA55" d="M112.093,66.398H40.574c-1.186,0-2.327-1.007-2.327-2.271V44.719c0-1.419,0.789-2.271,2.182-2.271h71.664
		c0.735,0,1.329,0.596,1.329,1.331v21.289C113.423,65.802,112.828,66.398,112.093,66.398z"/>
	<g>
		<path fill="#FFFFFF" d="M67.535,54.279l-3.147-4.794h1.831c0.126,0,0.22,0.018,0.275,0.052c0.057,0.033,0.108,0.09,0.154,0.167
			l2.246,3.626c0.023-0.059,0.049-0.117,0.076-0.174c0.027-0.058,0.059-0.115,0.095-0.175l2.056-3.243
			c0.1-0.169,0.23-0.253,0.389-0.253h1.762l-3.182,4.719l3.271,5.156h-1.837c-0.124,0-0.222-0.032-0.297-0.097
			c-0.075-0.063-0.138-0.136-0.187-0.218l-2.287-3.783c-0.018,0.055-0.038,0.105-0.062,0.153c-0.022,0.048-0.046,0.093-0.068,0.134
			l-2.192,3.496c-0.051,0.077-0.111,0.149-0.184,0.215c-0.073,0.066-0.164,0.1-0.273,0.1h-1.72L67.535,54.279z"/>
		<path fill="#FFFFFF" d="M76.275,57.844h3.954v1.517h-5.791v-9.874h1.836V57.844L76.275,57.844z"/>
		<path fill="#FFFFFF" d="M86.791,51.282c-0.051,0.1-0.107,0.17-0.174,0.211s-0.145,0.062-0.236,0.062
			c-0.091,0-0.192-0.035-0.307-0.105c-0.115-0.07-0.248-0.149-0.402-0.235c-0.155-0.087-0.335-0.165-0.543-0.236
			c-0.207-0.07-0.451-0.105-0.734-0.105c-0.254,0-0.477,0.031-0.666,0.092c-0.188,0.062-0.348,0.147-0.478,0.257
			c-0.13,0.108-0.227,0.239-0.29,0.392c-0.064,0.153-0.097,0.32-0.097,0.502c0,0.232,0.064,0.426,0.194,0.581
			c0.131,0.154,0.302,0.286,0.516,0.396c0.213,0.109,0.457,0.208,0.729,0.294c0.273,0.087,0.552,0.179,0.837,0.276
			c0.284,0.099,0.563,0.212,0.835,0.342c0.272,0.13,0.518,0.294,0.731,0.491c0.213,0.198,0.385,0.441,0.515,0.728
			c0.13,0.287,0.194,0.635,0.194,1.045c0,0.446-0.076,0.863-0.228,1.253c-0.153,0.39-0.376,0.729-0.669,1.017
			c-0.293,0.29-0.652,0.518-1.076,0.684c-0.422,0.166-0.906,0.249-1.454,0.249c-0.313,0-0.624-0.031-0.929-0.093
			c-0.305-0.061-0.596-0.148-0.877-0.263c-0.279-0.113-0.541-0.25-0.785-0.41c-0.244-0.159-0.463-0.336-0.652-0.532l0.531-0.881
			c0.051-0.063,0.111-0.117,0.182-0.16s0.149-0.065,0.236-0.065c0.113,0,0.236,0.047,0.367,0.141
			c0.133,0.093,0.291,0.196,0.468,0.311c0.181,0.113,0.393,0.218,0.636,0.311c0.244,0.094,0.537,0.141,0.877,0.141
			c0.524,0,0.929-0.124,1.216-0.373c0.288-0.248,0.431-0.604,0.431-1.068c0-0.26-0.064-0.472-0.195-0.636
			c-0.129-0.163-0.301-0.301-0.515-0.413c-0.215-0.111-0.458-0.205-0.731-0.282c-0.271-0.078-0.551-0.162-0.831-0.253
			c-0.282-0.091-0.56-0.2-0.833-0.328c-0.271-0.127-0.517-0.293-0.73-0.498c-0.213-0.205-0.385-0.461-0.515-0.768
			c-0.13-0.308-0.194-0.687-0.194-1.137c0-0.36,0.072-0.711,0.214-1.053c0.144-0.341,0.354-0.644,0.63-0.907
			c0.274-0.264,0.613-0.476,1.014-0.636c0.4-0.158,0.857-0.238,1.372-0.238c0.581,0,1.118,0.091,1.61,0.273
			c0.49,0.182,0.91,0.437,1.256,0.764L86.791,51.282z"/>
	</g>
	<g>
		<path fill="#64AA55" d="M72.729,90.446l-7.697-11.72h4.475c0.312,0,0.536,0.041,0.676,0.124c0.14,0.084,0.264,0.221,0.376,0.409
			l5.493,8.866c0.055-0.145,0.118-0.286,0.184-0.426c0.065-0.139,0.144-0.28,0.234-0.425l5.025-7.932
			c0.244-0.411,0.562-0.616,0.952-0.616h4.307l-7.779,11.537l7.996,12.604h-4.49c-0.301,0-0.543-0.077-0.727-0.233
			s-0.336-0.335-0.459-0.534l-5.593-9.25c-0.045,0.134-0.096,0.259-0.15,0.376c-0.056,0.116-0.112,0.225-0.167,0.325l-5.359,8.548
			c-0.123,0.189-0.273,0.365-0.451,0.526c-0.178,0.163-0.401,0.242-0.667,0.242H64.7L72.729,90.446z"/>
	</g>
</g>
</svg>
