<?xml version="1.0" encoding="utf-8"?>
<!-- Generator: Adobe Illustrator 16.0.0, SVG Export Plug-In . SVG Version: 6.00 Build 0)  -->
<!DOCTYPE svg PUBLIC "-//W3C//DTD SVG 1.1//EN" "http://www.w3.org/Graphics/SVG/1.1/DTD/svg11.dtd">
<svg version="1.1" id="Layer_1" xmlns="http://www.w3.org/2000/svg" xmlns:xlink="http://www.w3.org/1999/xlink" x="0px" y="0px"
	 width="154px" height="154px" viewBox="0 0 154 154" enable-background="new 0 0 154 154" xml:space="preserve">
<g>
	<path fill="#FFFFFF" d="M105.108,115.544c2.205,0,3.992-1.787,3.992-3.991V42.448c0-2.205-1.787-3.992-3.992-3.992H46.562
		c-2.205,0-3.992,1.787-3.992,3.992v59.79l13.306,13.306H105.108L105.108,115.544z"/>
	<path fill="#61B0E5" d="M51.884,102.238H42.57l13.306,13.306v-9.314C55.875,104.025,54.088,102.238,51.884,102.238z"/>
	<path fill="#61B0E5" d="M114.423,45.108H42.57V69.06h71.853c0.733,0,1.33-0.596,1.33-1.331V46.439
		C115.753,45.704,115.156,45.108,114.423,45.108z"/>
	<path fill="#8CC7F9" d="M112.092,66.398H40.574c-1.185,0-2.327-1.006-2.327-2.271V44.719c0-1.419,0.789-2.271,2.182-2.271h71.663
		c0.736,0,1.33,0.596,1.33,1.33v21.289C113.423,65.803,112.828,66.398,112.092,66.398z"/>
	<g>
		<path fill="#FFFFFF" d="M69.642,49.199v1.461h-4.376v2.923h3.694v1.469h-3.694v4.021h-1.85v-9.874H69.642z"/>
		<path fill="#FFFFFF" d="M73.151,59.073h-1.844v-9.874h1.844V59.073z"/>
		<path fill="#FFFFFF" d="M77.207,57.557h3.954v1.517H75.37v-9.874h1.837V57.557L77.207,57.557z"/>
		<path fill="#FFFFFF" d="M88.659,49.199v1.461h-4.378v2.738h3.449v1.414h-3.449v2.792h4.378v1.469h-6.229v-9.874H88.659z"/>
	</g>
</g>
</svg>
