<?xml version="1.0" encoding="utf-8"?>
<!-- Generator: Adobe Illustrator 16.0.0, SVG Export Plug-In . SVG Version: 6.00 Build 0)  -->
<!DOCTYPE svg PUBLIC "-//W3C//DTD SVG 1.1//EN" "http://www.w3.org/Graphics/SVG/1.1/DTD/svg11.dtd">
<svg version="1.1" id="Layer_1" xmlns="http://www.w3.org/2000/svg" xmlns:xlink="http://www.w3.org/1999/xlink" x="0px" y="0px"
	 width="154px" height="154px" viewBox="0 0 154 154" enable-background="new 0 0 154 154" xml:space="preserve">
<g>
	<path fill="#FFFFFF" d="M105.078,115.544c2.204,0,3.991-1.787,3.991-3.991V42.448c0-2.205-1.787-3.992-3.991-3.992H46.531
		c-2.204,0-3.991,1.787-3.991,3.992v59.79l13.306,13.306H105.078z"/>
	<path fill="#EA3636" d="M51.885,102.238H42.57l13.306,13.306v-9.314C55.875,104.025,54.089,102.238,51.885,102.238z"/>
	<path fill="#EA3636" d="M114.423,45.108H42.57V69.06h71.854c0.733,0,1.329-0.596,1.329-1.33v-21.29
		C115.753,45.705,115.156,45.108,114.423,45.108z"/>
	<path fill="#F94E4E" d="M112.093,66.398H40.574c-1.185,0-2.327-1.007-2.327-2.271V44.719c0-1.419,0.789-2.271,2.182-2.271h71.664
		c0.735,0,1.329,0.596,1.329,1.331v21.289C113.423,65.802,112.828,66.398,112.093,66.398z"/>
	<g>
		<path fill="#FFFFFF" d="M65.217,55.885v3.476H63.38v-9.874h3.217c0.659,0,1.231,0.077,1.713,0.232
			c0.483,0.154,0.881,0.371,1.195,0.648c0.314,0.277,0.547,0.61,0.697,0.997c0.151,0.387,0.227,0.811,0.227,1.27
			c0,0.479-0.08,0.917-0.239,1.315c-0.161,0.398-0.399,0.74-0.717,1.027c-0.319,0.286-0.718,0.509-1.195,0.668
			c-0.479,0.16-1.039,0.239-1.679,0.239L65.217,55.885L65.217,55.885z M65.217,54.45h1.38c0.335,0,0.63-0.042,0.88-0.126
			s0.457-0.205,0.621-0.361c0.164-0.158,0.286-0.349,0.368-0.573c0.082-0.226,0.124-0.478,0.124-0.755
			c0-0.264-0.042-0.503-0.124-0.717s-0.205-0.396-0.368-0.547c-0.164-0.15-0.371-0.266-0.621-0.345s-0.544-0.119-0.88-0.119h-1.38
			V54.45z"/>
		<path fill="#FFFFFF" d="M80.621,54.423c0,0.724-0.12,1.389-0.361,1.994c-0.24,0.605-0.58,1.127-1.018,1.563
			c-0.436,0.438-0.963,0.776-1.577,1.018c-0.616,0.242-1.295,0.362-2.042,0.362h-3.77v-9.874h3.77c0.746,0,1.427,0.122,2.042,0.365
			c0.614,0.244,1.142,0.583,1.577,1.018c0.438,0.435,0.777,0.955,1.018,1.561C80.501,53.035,80.621,53.699,80.621,54.423z
			 M78.744,54.423c0-0.542-0.072-1.027-0.219-1.458c-0.146-0.43-0.354-0.794-0.621-1.093c-0.27-0.297-0.596-0.526-0.979-0.686
			c-0.385-0.16-0.819-0.239-1.303-0.239h-1.918v6.951h1.918c0.483,0,0.918-0.079,1.303-0.239c0.382-0.159,0.71-0.388,0.979-0.686
			c0.269-0.298,0.476-0.663,0.621-1.092C78.672,55.451,78.744,54.965,78.744,54.423z"/>
		<path fill="#FFFFFF" d="M88.29,49.486v1.461h-4.377v2.923h3.694v1.468h-3.694v4.022h-1.851v-9.874H88.29z"/>
	</g>
	<path fill="#F94E4E" d="M64.6,108.096c-0.432,0-0.847-0.141-1.2-0.404c-1.292-0.969-1.466-2.048-1.384-2.782
		c0.227-2.021,2.724-4.136,7.428-6.29c1.867-4.091,3.643-9.132,4.701-13.343c-1.239-2.695-2.442-6.192-1.565-8.245
		c0.307-0.719,0.69-1.27,1.406-1.507c0.412-0.116,0.835-0.188,1.263-0.214c0.625,0,1.176,0.805,1.566,1.302
		c0.365,0.467,1.197,1.456-0.463,8.442c1.673,3.455,4.043,6.976,6.315,9.386c1.628-0.294,3.028-0.444,4.168-0.444
		c1.943,0,3.122,0.453,3.602,1.388c0.396,0.771,0.234,1.674-0.484,2.681c-0.691,0.966-1.645,1.479-2.755,1.479
		c-1.509,0-3.267-0.954-5.227-2.836c-3.522,0.734-7.634,2.048-10.958,3.502c-1.038,2.202-2.031,3.976-2.958,5.275
		C66.783,107.265,65.685,108.096,64.6,108.096L64.6,108.096z M67.903,101.734c-2.652,1.491-3.733,2.715-3.812,3.404
		c-0.012,0.115-0.046,0.416,0.535,0.86C64.813,105.94,65.892,105.447,67.903,101.734L67.903,101.734z M84.83,96.221
		c1.011,0.778,1.259,1.172,1.92,1.172c0.291,0,1.117-0.013,1.502-0.547c0.184-0.261,0.255-0.426,0.285-0.516
		c-0.153-0.08-0.355-0.244-1.459-0.244C86.451,96.087,85.663,96.114,84.83,96.221z M75.558,88.052
		c-0.93,3.189-2.038,6.323-3.318,9.386c2.627-1.017,5.322-1.854,8.063-2.506C78.625,92.986,76.951,90.556,75.558,88.052z
		 M74.805,77.549c-0.122,0.041-1.652,2.181,0.119,3.991C76.102,78.916,74.857,77.531,74.805,77.549z"/>
</g>
</svg>
