<?xml version="1.0" encoding="utf-8"?>
<!-- Generator: Adobe Illustrator 18.0.0, SVG Export Plug-In . SVG Version: 6.00 Build 0)  -->
<!DOCTYPE svg PUBLIC "-//W3C//DTD SVG 1.1//EN" "http://www.w3.org/Graphics/SVG/1.1/DTD/svg11.dtd">
<svg version="1.1" id="Capa_1" xmlns="http://www.w3.org/2000/svg" xmlns:xlink="http://www.w3.org/1999/xlink" x="0px" y="0px"
	 viewBox="0 0 595.3 841.9" enable-background="new 0 0 595.3 841.9" xml:space="preserve">
<g>
	<g>
		<path fill="#999999" d="M140.9,496.7c20,0,37.1-7.1,51.4-21.3c14.3-14.3,21.3-31.3,21.3-51.4V307.6c0-20-7.1-37.1-21.3-51.4
			C178,242,161,234.9,140.9,234.9s-37.1,7.1-51.4,21.3c-14.3,14.3-21.3,31.3-21.3,51.4V424c0,20,7.1,37.1,21.3,51.4
			C103.7,489.5,120.9,496.7,140.9,496.7z"/>
		<path fill="#999999" d="M267.5,384.7c-2.9-2.9-6.3-4.3-10.3-4.3c-3.9,0-7.4,1.4-10.3,4.3c-2.9,2.9-4.3,6.3-4.3,10.3V424
			c0,28.1-10,52-29.9,71.9c-19.9,19.9-43.9,29.8-71.9,29.8s-52-9.9-71.9-29.8C49,476,39.1,452.1,39.1,424v-29.1
			c0-3.9-1.4-7.4-4.3-10.3s-6.3-4.3-10.3-4.3s-7.4,1.4-10.3,4.3c-2.9,2.9-4.3,6.3-4.3,10.3V424c0,33.5,11.2,62.6,33.6,87.3
			c22.3,24.8,50,39,82.8,42.6v29.9H68.1c-3.9,0-7.4,1.5-10.3,4.3c-2.9,2.9-4.3,6.3-4.3,10.3c0,3.9,1.4,7.4,4.3,10.3
			c2.9,2.9,6.3,4.3,10.3,4.3h145.5c3.9,0,7.4-1.5,10.3-4.3c2.9-2.9,4.3-6.3,4.3-10.3c0-3.9-1.4-7.4-4.3-10.3
			c-2.9-2.9-6.3-4.3-10.3-4.3h-58.1v-29.9c32.8-3.6,60.5-17.8,82.8-42.6s33.6-53.9,33.6-87.3v-29.1
			C271.7,390.9,270.4,387.6,267.5,384.7z"/>
	</g>
</g>
<g>
	<path fill="#999999" d="M313.7,402.2c-0.9,0.9-1.4,2-1.4,3.3v64.7c0,1.3,0.5,2.4,1.4,3.3c0.9,0.9,2,1.4,3.3,1.4s2.4-0.5,3.3-1.4
		l32.3-32.3c0.9-0.9,1.4-2,1.4-3.3s-0.5-2.4-1.4-3.3l-32.3-32.3c-0.9-0.9-2-1.4-3.3-1.4C315.7,400.8,314.6,401.2,313.7,402.2z"/>
</g>
<g>
	<path fill="#999999" d="M572.8,387.3c-4.3-18.4-9.2-30.1-15.6-36.5c-6-6.4-15.2-8.5-35.8-8.5H505v167.7c0,30.1,3.5,32.3,34.7,34.7
		v12.4H424.2v-12.4c29.8-2.5,33.3-4.6,33.3-34.7V342.2h-12.1c-29.1,0-35.5,3.9-40.8,9.6c-5.7,6-10.3,18.1-14.9,35.8h-12.8
		c1.4-25.9,3.5-51.8,4.3-69.8h8.5c5.7,8.2,10.3,8.9,20.2,8.9h142.5c9.6,0,14.5-2.1,20.6-8.9h8.5c0.4,14.9,2.1,46.1,3.9,68.8
		L572.8,387.3z"/>
</g>
</svg>
