<?xml version="1.0" encoding="utf-8"?>
<!-- Generator: Adobe Illustrator 16.0.0, SVG Export Plug-In . SVG Version: 6.00 Build 0)  -->
<!DOCTYPE svg PUBLIC "-//W3C//DTD SVG 1.1//EN" "http://www.w3.org/Graphics/SVG/1.1/DTD/svg11.dtd">
<svg version="1.1" id="Layer_1" xmlns="http://www.w3.org/2000/svg" xmlns:xlink="http://www.w3.org/1999/xlink" x="0px" y="0px"
	 width="154px" height="154px" viewBox="0 0 154 154" enable-background="new 0 0 154 154" xml:space="preserve">
<g>
	<path fill="#FFFFFF" d="M105.078,115.544c2.204,0,3.99-1.787,3.99-3.991V42.447c0-2.204-1.786-3.991-3.99-3.991H46.53
		c-2.204,0-3.991,1.787-3.991,3.991v59.791l13.306,13.306H105.078z"/>
	<path fill="#FF8650" d="M51.884,102.238H42.57l13.306,13.306v-9.314C55.875,104.025,54.088,102.238,51.884,102.238z"/>
	<path fill="#FF8650" d="M114.423,45.108H42.57V69.06h71.853c0.733,0,1.33-0.596,1.33-1.331v-21.29
		C115.753,45.704,115.156,45.108,114.423,45.108z"/>
	<path fill="#FF9864" d="M112.093,66.398h-71.52c-1.185,0-2.326-1.007-2.326-2.271V44.719c0-1.419,0.789-2.271,2.182-2.271h71.664
		c0.735,0,1.329,0.595,1.329,1.33v21.289C113.423,65.802,112.828,66.398,112.093,66.398z"/>
	<g>
		<path fill="#FF9D6C" d="M75.803,76.931c-8.219,0-14.884,6.664-14.884,14.884s6.664,14.884,14.884,14.884
			s14.884-6.664,14.884-14.884S84.024,76.931,75.803,76.931z M75.803,101.736c-5.479,0-9.922-4.441-9.922-9.922
			s4.442-9.922,9.922-9.922c5.481,0,9.923,4.44,9.923,9.922C85.725,97.294,81.284,101.736,75.803,101.736z"/>
		<path fill="#F94E4E" d="M72.519,86.492v10.645c0,1.097,1.252,1.722,2.129,1.064l7.097-5.322c0.708-0.532,0.708-1.597,0-2.129
			l-7.096-5.322C73.772,84.769,72.519,85.395,72.519,86.492z"/>
	</g>
	<g>
		<path fill="#FFFFFF" d="M63.974,49.485h1.481c0.16,0,0.29,0.039,0.389,0.117c0.1,0.077,0.175,0.177,0.226,0.3l2.322,6.022
			c0.077,0.196,0.151,0.411,0.222,0.646c0.071,0.234,0.139,0.481,0.202,0.741c0.105-0.523,0.234-0.985,0.39-1.387l2.314-6.022
			c0.041-0.104,0.114-0.2,0.219-0.286c0.104-0.087,0.234-0.131,0.39-0.131h1.481l-3.987,9.875h-1.659L63.974,49.485z"/>
		<path fill="#FFFFFF" d="M76.71,59.36h-1.845v-9.875h1.845V59.36L76.71,59.36z"/>
		<path fill="#FFFFFF" d="M87.695,54.423c0,0.724-0.12,1.389-0.361,1.994c-0.241,0.604-0.58,1.127-1.018,1.563
			c-0.437,0.438-0.963,0.776-1.577,1.018c-0.614,0.242-1.295,0.362-2.042,0.362h-3.77v-9.875h3.77c0.746,0,1.428,0.122,2.042,0.366
			c0.614,0.243,1.141,0.582,1.577,1.018c0.438,0.435,0.776,0.955,1.018,1.561C87.575,53.034,87.695,53.699,87.695,54.423z
			 M85.818,54.423c0-0.542-0.073-1.028-0.219-1.458c-0.146-0.431-0.354-0.795-0.621-1.093c-0.27-0.298-0.594-0.526-0.98-0.686
			c-0.385-0.16-0.818-0.239-1.301-0.239h-1.918v6.951h1.918c0.482,0,0.916-0.08,1.301-0.239s0.711-0.388,0.98-0.686
			c0.27-0.299,0.476-0.663,0.621-1.093S85.818,54.965,85.818,54.423z"/>
	</g>
</g>
</svg>
