<?xml version="1.0" encoding="utf-8"?>
<!-- Generator: Adobe Illustrator 16.0.0, SVG Export Plug-In . SVG Version: 6.00 Build 0)  -->
<!DOCTYPE svg PUBLIC "-//W3C//DTD SVG 1.1//EN" "http://www.w3.org/Graphics/SVG/1.1/DTD/svg11.dtd">
<svg version="1.1" id="Capa_1" xmlns="http://www.w3.org/2000/svg" xmlns:xlink="http://www.w3.org/1999/xlink" x="0px" y="0px"
	 width="503.227px" height="467.367px" viewBox="0 0 503.227 467.367" enable-background="new 0 0 503.227 467.367"
	 xml:space="preserve">
<g>
	<path fill="#999999" d="M359.789,143.438c-19.772,0-35.859,16.087-35.859,35.859s16.087,35.859,35.859,35.859
		c19.773,0,35.859-16.087,35.859-35.859S379.561,143.438,359.789,143.438z"/>
	<path fill="#999999" d="M144.633,143.438c-19.773,0-35.859,16.087-35.859,35.859s16.086,35.859,35.859,35.859
		c19.773,0,35.859-16.087,35.859-35.859S164.406,143.438,144.633,143.438z"/>
	<path fill="#999999" d="M413.579,0H90.844C41.281,0,0,40.085,0,89.648v179.297c0,44.028,32.385,79.785,72.914,87.882v92.61
		c0,6.809,3.856,13.028,9.955,16.058c6.134,3.047,13.417,2.316,18.81-1.771l138.633-105.131h173.267
		c49.433,0,89.647-40.216,89.647-89.647V89.648C503.227,40.217,463.011,0,413.579,0z M359.787,251.017c-4.648,0-208.418,0-215.156,0
		c-39.546,0-71.719-32.174-71.719-71.72s32.173-71.719,71.719-71.719c39.546,0,71.719,32.173,71.719,71.719
		c0,13.059-3.524,25.301-9.648,35.859h91.016c-6.122-10.558-9.647-22.8-9.647-35.859c0-39.546,32.173-71.719,71.719-71.719
		s71.719,32.173,71.717,71.719C431.506,218.842,399.334,251.017,359.787,251.017z"/>
</g>
</svg>
