<?xml version="1.0" encoding="utf-8"?>
<!-- Generator: Adobe Illustrator 16.0.0, SVG Export Plug-In . SVG Version: 6.00 Build 0)  -->
<!DOCTYPE svg PUBLIC "-//W3C//DTD SVG 1.1//EN" "http://www.w3.org/Graphics/SVG/1.1/DTD/svg11.dtd">
<svg version="1.1" id="Layer_1" xmlns="http://www.w3.org/2000/svg" xmlns:xlink="http://www.w3.org/1999/xlink" x="0px" y="0px"
	 width="154px" height="154px" viewBox="0 0 154 154" enable-background="new 0 0 154 154" xml:space="preserve">
<g>
	<g>
		<path fill="#FFFFFF" d="M105.108,115.544c2.205,0,3.991-1.787,3.991-3.991V42.447c0-2.204-1.786-3.991-3.991-3.991H46.561
			c-2.204,0-3.991,1.787-3.991,3.991v59.791l13.306,13.306H105.108L105.108,115.544z"/>
		<path fill="#4285BC" d="M51.884,102.238H42.57l13.306,13.306v-9.314C55.875,104.025,54.088,102.238,51.884,102.238z"/>
		<path fill="#4285BC" d="M114.423,45.108H42.57V69.06h71.853c0.734,0,1.33-0.596,1.33-1.33v-21.29
			C115.753,45.704,115.157,45.108,114.423,45.108z"/>
		<path fill="#619BD6" d="M112.094,66.398h-71.52c-1.185,0-2.327-1.006-2.327-2.271V44.719c0-1.419,0.788-2.271,2.182-2.271h71.663
			c0.735,0,1.33,0.596,1.33,1.331v21.289C113.423,65.802,112.828,66.398,112.094,66.398z"/>
	</g>
	<g>
		<path fill="#FFFFFF" d="M69.775,54.654c0,0.725-0.12,1.389-0.361,1.994s-0.582,1.127-1.018,1.563
			c-0.437,0.438-0.962,0.776-1.577,1.018c-0.615,0.241-1.296,0.361-2.042,0.361h-3.77v-9.873h3.77c0.747,0,1.427,0.122,2.042,0.365
			c0.614,0.244,1.14,0.584,1.577,1.018c0.436,0.435,0.776,0.955,1.018,1.561C69.655,53.267,69.775,53.931,69.775,54.654z
			 M67.898,54.654c0-0.541-0.074-1.027-0.219-1.458c-0.146-0.43-0.354-0.794-0.622-1.092c-0.269-0.299-0.594-0.527-0.979-0.687
			c-0.384-0.159-0.818-0.239-1.301-0.239h-1.919v6.951h1.919c0.483,0,0.917-0.079,1.301-0.238c0.385-0.159,0.711-0.389,0.979-0.687
			c0.269-0.298,0.476-0.663,0.622-1.093C67.825,55.683,67.898,55.196,67.898,54.654z"/>
		<path fill="#FFFFFF" d="M80.687,54.654c0,0.725-0.12,1.395-0.362,2.012c-0.241,0.616-0.58,1.15-1.018,1.602
			c-0.437,0.45-0.962,0.802-1.578,1.055c-0.614,0.253-1.294,0.379-2.041,0.379c-0.747,0-1.428-0.127-2.045-0.379
			c-0.616-0.253-1.144-0.604-1.584-1.055c-0.44-0.451-0.78-0.985-1.021-1.602c-0.242-0.617-0.362-1.287-0.362-2.012
			c0-0.724,0.12-1.394,0.362-2.011c0.241-0.616,0.582-1.15,1.021-1.601c0.439-0.451,0.967-0.803,1.584-1.055
			c0.617-0.253,1.299-0.379,2.045-0.379s1.427,0.127,2.041,0.382c0.616,0.255,1.142,0.606,1.578,1.055
			c0.438,0.448,0.776,0.981,1.018,1.598C80.566,53.261,80.687,53.931,80.687,54.654z M78.802,54.654
			c0-0.541-0.071-1.027-0.214-1.458c-0.145-0.43-0.35-0.795-0.617-1.096c-0.27-0.301-0.596-0.53-0.981-0.69
			c-0.385-0.159-0.818-0.238-1.301-0.238c-0.482,0-0.918,0.079-1.305,0.238c-0.387,0.16-0.716,0.39-0.986,0.69
			s-0.479,0.666-0.625,1.096c-0.145,0.431-0.218,0.917-0.218,1.458c0,0.542,0.073,1.028,0.218,1.458
			c0.146,0.431,0.354,0.795,0.625,1.093s0.6,0.527,0.986,0.687c0.387,0.159,0.822,0.238,1.305,0.238
			c0.483,0,0.917-0.079,1.301-0.238c0.384-0.159,0.71-0.389,0.981-0.687c0.268-0.298,0.473-0.663,0.617-1.093
			C78.73,55.683,78.802,55.196,78.802,54.654z"/>
		<path fill="#FFFFFF" d="M88.922,57.264c0.1,0,0.186,0.039,0.259,0.116l0.724,0.785c-0.399,0.496-0.893,0.876-1.479,1.141
			c-0.586,0.264-1.286,0.396-2.105,0.396c-0.732,0-1.393-0.125-1.977-0.375c-0.586-0.251-1.086-0.6-1.5-1.045
			c-0.414-0.446-0.731-0.979-0.953-1.599c-0.221-0.619-0.33-1.295-0.33-2.028c0-0.741,0.121-1.421,0.368-2.038
			c0.247-0.616,0.593-1.148,1.038-1.594c0.445-0.446,0.98-0.794,1.602-1.042s1.307-0.372,2.059-0.372
			c0.733,0,1.373,0.117,1.922,0.352s1.019,0.546,1.411,0.933l-0.615,0.853c-0.036,0.055-0.083,0.103-0.14,0.144
			c-0.059,0.041-0.137,0.062-0.236,0.062c-0.104,0-0.212-0.041-0.321-0.123c-0.108-0.082-0.249-0.171-0.416-0.267
			c-0.169-0.096-0.382-0.185-0.639-0.267s-0.583-0.122-0.98-0.122c-0.464,0-0.892,0.08-1.28,0.242
			c-0.39,0.162-0.723,0.393-1.004,0.693c-0.28,0.301-0.499,0.666-0.656,1.096c-0.157,0.431-0.235,0.914-0.235,1.451
			c0,0.555,0.078,1.049,0.235,1.481s0.369,0.797,0.639,1.093c0.268,0.296,0.584,0.522,0.948,0.68
			c0.364,0.156,0.755,0.235,1.175,0.235c0.25,0,0.477-0.014,0.68-0.041s0.389-0.07,0.561-0.13c0.171-0.06,0.332-0.136,0.485-0.229
			c0.151-0.094,0.304-0.209,0.454-0.345c0.045-0.041,0.094-0.074,0.143-0.1C88.809,57.276,88.862,57.264,88.922,57.264z"/>
	</g>
	<g>
		<path fill="#619BD6" d="M58.544,80.101h3.773c0.389,0,0.715,0.091,0.977,0.274c0.261,0.184,0.436,0.431,0.526,0.744l4.107,14.44
			c0.1,0.357,0.192,0.744,0.275,1.16c0.083,0.418,0.164,0.86,0.243,1.329c0.088-0.468,0.186-0.911,0.292-1.329
			c0.105-0.418,0.22-0.804,0.341-1.16l4.741-14.44c0.09-0.257,0.265-0.49,0.527-0.702c0.261-0.211,0.581-0.316,0.961-0.316h1.317
			c0.39,0,0.713,0.092,0.968,0.274c0.256,0.184,0.436,0.432,0.535,0.744l4.708,14.441c0.245,0.711,0.456,1.502,0.634,2.37
			c0.078-0.434,0.16-0.853,0.242-1.252c0.084-0.4,0.17-0.773,0.26-1.118l4.106-14.441c0.078-0.278,0.25-0.519,0.518-0.718
			c0.268-0.201,0.591-0.301,0.969-0.301h3.522l-7.496,24.141h-4.058l-5.275-16.494c-0.067-0.212-0.137-0.44-0.208-0.685
			c-0.074-0.245-0.143-0.506-0.209-0.785c-0.066,0.279-0.136,0.54-0.208,0.785s-0.142,0.473-0.208,0.685L70.1,104.241h-4.058
			L58.544,80.101z"/>
	</g>
</g>
</svg>
