<?xml version="1.0" encoding="utf-8"?>
<!-- Generator: Adobe Illustrator 16.0.0, SVG Export Plug-In . SVG Version: 6.00 Build 0)  -->
<!DOCTYPE svg PUBLIC "-//W3C//DTD SVG 1.1//EN" "http://www.w3.org/Graphics/SVG/1.1/DTD/svg11.dtd">
<svg version="1.1" id="Layer_1" xmlns="http://www.w3.org/2000/svg" xmlns:xlink="http://www.w3.org/1999/xlink" x="0px" y="0px"
	 width="154px" height="154px" viewBox="0 0 154 154" enable-background="new 0 0 154 154" xml:space="preserve">
<g>
	<path fill="#FFFFFF" d="M105.078,115.544c2.204,0,3.99-1.787,3.99-3.991V42.447c0-2.204-1.786-3.991-3.99-3.991H46.53
		c-2.204,0-3.991,1.787-3.991,3.991v59.791l13.305,13.306H105.078z"/>
	<path fill="#FFC152" d="M51.884,102.238H42.57l13.306,13.306v-9.314C55.875,104.025,54.088,102.238,51.884,102.238z"/>
	<path fill="#FFC152" d="M114.423,45.108H42.57V69.06h71.853c0.733,0,1.33-0.596,1.33-1.331v-21.29
		C115.753,45.704,115.156,45.108,114.423,45.108z"/>
	<path fill="#FFDE55" d="M112.093,66.398H40.574c-1.185,0-2.327-1.007-2.327-2.271V44.719c0-1.419,0.789-2.271,2.182-2.271h71.664
		c0.735,0,1.329,0.595,1.329,1.33v21.289C113.423,65.802,112.828,66.398,112.093,66.398z"/>
	<g>
		<path fill="#FFFFFF" d="M73.264,49.485v0.677c0,0.209-0.059,0.4-0.178,0.573l-5.067,7.156h5.122v1.469h-7.504v-0.724
			c0-0.092,0.015-0.18,0.047-0.264s0.073-0.162,0.123-0.235l5.081-7.19h-4.93v-1.461L73.264,49.485L73.264,49.485z"/>
		<path fill="#FFFFFF" d="M76.706,59.36h-1.844v-9.875h1.844V59.36z"/>
		<path fill="#FFFFFF" d="M80.823,55.884v3.477h-1.837v-9.875h3.216c0.659,0,1.231,0.078,1.714,0.232
			c0.482,0.155,0.881,0.371,1.195,0.648c0.314,0.278,0.548,0.61,0.698,0.998c0.148,0.387,0.226,0.81,0.226,1.27
			c0,0.478-0.08,0.916-0.239,1.314c-0.161,0.398-0.399,0.741-0.718,1.027c-0.318,0.287-0.718,0.51-1.195,0.669
			c-0.479,0.16-1.038,0.239-1.68,0.239H80.823L80.823,55.884z M80.823,54.45h1.379c0.336,0,0.63-0.042,0.88-0.126
			c0.25-0.085,0.459-0.205,0.621-0.362c0.164-0.157,0.287-0.348,0.369-0.573c0.082-0.225,0.123-0.477,0.123-0.755
			c0-0.264-0.041-0.503-0.123-0.717s-0.205-0.396-0.369-0.546c-0.163-0.15-0.371-0.266-0.621-0.345c-0.25-0.08-0.544-0.12-0.88-0.12
			h-1.379V54.45z"/>
	</g>
	<g>
		<path fill="#A1A7AF" d="M96.279,90.708c-0.3,0-0.601-0.101-0.85-0.309l-7.984-6.652c-0.303-0.253-0.479-0.628-0.479-1.023
			s0.176-0.769,0.479-1.022l7.982-6.653c0.565-0.471,1.404-0.394,1.875,0.17c0.469,0.565,0.394,1.404-0.171,1.874l-6.757,5.631
			l6.758,5.631c0.564,0.471,0.64,1.31,0.17,1.874C97.039,90.545,96.661,90.708,96.279,90.708z"/>
		<g>
			<path fill="#55606E" d="M80.313,88.048c-0.735,0-1.329-0.595-1.329-1.329v-3.992c0-0.735,0.595-1.329,1.329-1.329
				c0.735,0,1.331,0.595,1.331,1.329v3.992C81.645,87.451,81.049,88.048,80.313,88.048z"/>
			<path fill="#55606E" d="M88.297,81.395h-2.66v-2.661c0-0.735-0.597-1.331-1.332-1.331c-0.734,0-1.33,0.596-1.33,1.331v2.661
				h-5.322v-2.661c0-0.735-0.595-1.331-1.33-1.331c-0.735,0-1.33,0.596-1.33,1.331v2.661h-5.324v-2.661
				c0-0.735-0.595-1.331-1.33-1.331c-0.734,0-1.33,0.596-1.33,1.331v2.661h-5.323v-2.661c0-0.735-0.596-1.331-1.331-1.331
				c-0.734,0-1.33,0.596-1.33,1.331v2.661h-2.662c-0.735,0-1.331,0.596-1.331,1.33c0,0.735,0.596,1.33,1.331,1.33h6.653v2.662
				c0,0.734,0.595,1.331,1.33,1.331c0.735,0,1.331-0.597,1.331-1.331v-2.662h5.322v2.662c0,0.734,0.596,1.331,1.331,1.331
				c0.734,0,1.33-0.597,1.33-1.331v-2.662h14.636c0.735,0,1.329-0.595,1.329-1.33C89.627,81.99,89.031,81.395,88.297,81.395z"/>
			<path fill="#55606E" d="M88.297,93.286c-0.689,0-1.247-0.558-1.247-1.247v-9.314c0-0.688,0.558-1.246,1.247-1.246
				s1.248,0.558,1.248,1.246v9.314C89.543,92.729,88.986,93.286,88.297,93.286z"/>
		</g>
		<path fill="#F79F4D" d="M83.364,95.642l3.992-3.992c0.52-0.52,1.362-0.52,1.882,0l3.99,3.992c0.25,0.249,0.391,0.588,0.391,0.94
			v14.086c0,0.734-0.594,1.328-1.33,1.328h-7.983c-0.735,0-1.331-0.594-1.331-1.328V96.582
			C82.975,96.229,83.115,95.891,83.364,95.642z"/>
		<polygon fill="#FFC44F" points="84.305,110.668 84.305,96.582 88.297,92.59 92.289,96.582 92.289,110.668 		"/>
		<g>
			<path fill="#BF722A" d="M88.297,109.254c-0.689,0-1.247-0.559-1.247-1.247v-2.662c0-0.688,0.558-1.246,1.247-1.246
				s1.248,0.558,1.248,1.246v2.662C89.543,108.695,88.986,109.254,88.297,109.254z"/>
			<path fill="#BF722A" d="M88.297,101.271c-0.689,0-1.247-0.559-1.247-1.248v-2.661c0-0.688,0.558-1.247,1.247-1.247
				s1.248,0.559,1.248,1.247v2.661C89.543,100.712,88.986,101.271,88.297,101.271z"/>
		</g>
	</g>
</g>
</svg>
