<?xml version="1.0" encoding="utf-8"?>
<!-- Generator: Adobe Illustrator 16.0.0, SVG Export Plug-In . SVG Version: 6.00 Build 0)  -->
<!DOCTYPE svg PUBLIC "-//W3C//DTD SVG 1.1//EN" "http://www.w3.org/Graphics/SVG/1.1/DTD/svg11.dtd">
<svg version="1.1" id="Layer_1" xmlns="http://www.w3.org/2000/svg" xmlns:xlink="http://www.w3.org/1999/xlink" x="0px" y="0px"
	 width="50px" height="50px" viewBox="0 0 50 50" enable-background="new 0 0 50 50" xml:space="preserve">
<g>
	<path fill="#00398B" d="M25,49.251c13.338,0,24.25-10.915,24.25-24.252c0-13.338-10.912-24.25-24.25-24.25
		c-13.337,0-24.25,10.912-24.25,24.25C0.75,38.336,11.663,49.251,25,49.251z"/>
	<g>
		<g>
			<path fill="#F26B35" d="M23.91,23.347l4.714,10.43l4.68-10.43h1.372l-5.873,12.897h-0.28l-5.97-12.897H23.91z"/>
			<path fill="#FFFFFF" d="M13.986,36.528l5.967-12.896h0.28l5.873,12.896h-1.373L20.055,26.1l-4.714,10.429H13.986z"/>
		</g>
		<g>
			<circle fill="#F26B35" cx="37.164" cy="20.748" r="2.114"/>
			<circle fill="#F26B35" cx="32.633" cy="16.994" r="1.901"/>
			<circle fill="#F26B35" cx="27.458" cy="15.182" r="1.712"/>
			<circle fill="#F26B35" cx="21.762" cy="15.313" r="1.54"/>
			<circle fill="#F26B35" cx="16.392" cy="17.513" r="1.248"/>
			<circle fill="#F26B35" cx="11.733" cy="20.941" r="1.01"/>
		</g>
	</g>
</g>
</svg>
