<?xml version="1.0" encoding="utf-8"?>
<!-- Generator: Adobe Illustrator 16.0.0, SVG Export Plug-In . SVG Version: 6.00 Build 0)  -->
<!DOCTYPE svg PUBLIC "-//W3C//DTD SVG 1.1//EN" "http://www.w3.org/Graphics/SVG/1.1/DTD/svg11.dtd">
<svg version="1.1" id="Layer_1" xmlns="http://www.w3.org/2000/svg" xmlns:xlink="http://www.w3.org/1999/xlink" x="0px" y="0px"
	 width="50px" height="50px" viewBox="0 0 50 50" enable-background="new 0 0 50 50" xml:space="preserve">
<g>
	<path fill="#00398B" d="M25,49.25c13.338,0,24.25-10.914,24.25-24.251C49.25,11.662,38.338,0.75,25,0.75
		C11.663,0.75,0.75,11.662,0.75,25C0.75,38.336,11.663,49.25,25,49.25z"/>
	<g>
		<path fill="#FFFFFF" d="M11.806,18.953c-0.138,1.657,0.691,2.625,1.934,3.455c1.658,1.104,3.592,1.796,5.527,1.934
			c5.527,0.69,10.64-0.414,15.752-2.626c0.829-0.414,1.658-0.967,2.349-1.657c0.415-0.415,0.691-0.968,0.691-1.52
			c0.553,0.828,0.829,1.795,1.106,2.763c0.276,1.659-0.415,2.764-1.659,3.593c-1.52,1.105-3.316,1.52-5.112,1.796
			c-3.178,0.553-6.494,0.553-9.672,0.276c-2.487-0.276-4.836-0.69-7.047-1.52c-1.105-0.415-2.211-0.967-3.178-1.796
			c-0.861-0.808-1.592-1.285-1.318-2.822C11.347,19.965,11.391,19.643,11.806,18.953z"/>
		<path fill="#FFFFFF" d="M10.562,25.032c1.52,3.317,4.422,4.561,7.738,5.251c3.592,0.69,7.046,0.415,10.501-0.414
			c2.901-0.69,5.665-1.52,8.152-3.041c1.105-0.69,2.073-1.381,2.625-2.486c0,1.796,0.138,3.731-1.106,5.251
			c-0.967,1.105-2.21,1.796-3.454,2.349c-1.934,0.828-4.145,1.104-6.218,1.243c-1.934,0.138-3.869,0.138-5.942,0
			c-3.316-0.276-6.494-1.105-9.257-2.763C11.391,29.04,10.147,27.519,10.562,25.032z"/>
		<path fill="#FFFFFF" d="M15.398,14.117c-0.69,1.52-0.276,2.764,0.967,3.593c0.967,0.69,2.073,0.967,3.316,0.967
			c3.869,0.414,7.6,0,11.192-1.382c1.105-0.414,2.073-0.967,3.04-1.658c0.415-0.415,0.691-0.829,0.691-1.52
			c0.83,0.69,1.52,1.381,2.073,2.211c0.553,0.829,0.276,1.796-0.415,2.625c-0.968,1.105-2.211,1.657-3.593,2.072
			c-2.487,0.69-4.974,0.829-7.6,0.69c-2.625-0.138-5.25-0.553-7.738-1.382c-1.243-0.414-2.486-0.967-3.454-1.795
			c-0.276-0.139-0.415-0.415-0.553-0.691c-0.415-0.69-0.415-1.104,0.138-1.797C14.016,15.36,14.569,14.668,15.398,14.117z"/>
		<path fill="#FFFFFF" d="M24.379,16.19c-2.073,0-4.146-0.14-6.218-0.969c-0.415-0.138-0.83-0.414-1.244-0.69
			c-0.69-0.69-0.69-1.243,0.138-1.796c0.83-0.553,1.797-1.105,2.764-1.382c4.422-1.521,8.567-1.243,12.574,1.105
			c1.105,0.69,1.105,1.243,0,2.072c-1.243,0.829-2.625,1.105-4.007,1.381C27.005,16.05,25.761,16.19,24.379,16.19z"/>
		<path fill="#FFFFFF" d="M21.478,35.257c4.56,0.414,8.981-0.276,13.126-2.073c1.382-0.69,2.763-1.52,3.73-2.901
			c0.138,0.139,0,0.276,0,0.415c-1.243,3.039-3.592,4.697-6.632,5.526c-5.25,1.382-10.363,1.105-15.337-0.967
			c-1.658-0.69-3.178-1.936-4.145-3.593C12.082,31.665,14.94,34.841,21.478,35.257z"/>
		<path fill="#FFFFFF" d="M17.094,36.851c2.902,1.243,5.627,1.445,8.805,1.445c4.646-0.045,8.398-2.091,8.808-2.27
			c-2.182,1.922-5.63,3.375-8.669,3.513c-3.316,0.276-7.013-0.607-8.981-2.349c-0.284-0.237-0.426-0.389-0.547-0.69
			C16.659,36.61,16.909,36.764,17.094,36.851z"/>
	</g>
</g>
</svg>
