<?xml version="1.0" encoding="utf-8"?>
<!-- Generator: Adobe Illustrator 16.0.0, SVG Export Plug-In . SVG Version: 6.00 Build 0)  -->
<!DOCTYPE svg PUBLIC "-//W3C//DTD SVG 1.1//EN" "http://www.w3.org/Graphics/SVG/1.1/DTD/svg11.dtd">
<svg version="1.1" id="Layer_1" xmlns="http://www.w3.org/2000/svg" xmlns:xlink="http://www.w3.org/1999/xlink" x="0px" y="0px"
	 width="50px" height="50px" viewBox="0 0 50 50" enable-background="new 0 0 50 50" xml:space="preserve">
<g>
	<path fill="#00398B" d="M25,49.251c13.338,0,24.25-10.915,24.25-24.252c0-13.338-10.912-24.25-24.25-24.25
		c-13.337,0-24.25,10.912-24.25,24.25C0.75,38.336,11.663,49.251,25,49.251z"/>
	<g>
		<path fill-rule="evenodd" clip-rule="evenodd" fill="#FFFFFF" d="M18.769,16.73c2.143-0.037,4.002,0.697,5.598,2.114
			c0.108,0.095,0.216,0.192,0.307,0.303c0.336,0.412,0.313,0.998-0.048,1.377c-0.364,0.384-0.936,0.434-1.372,0.113
			c-0.086-0.063-0.163-0.141-0.243-0.212c-1.766-1.551-3.795-2.063-6.042-1.38c-2.264,0.688-3.715,2.242-4.271,4.538
			c-0.859,3.538,1.495,7.013,5.086,7.597c3.384,0.551,6.612-1.755,7.149-5.125c0.108-0.684,0.12-1.383,0.223-2.066
			c0.508-3.401,2.38-5.759,5.625-6.853c3.009-1.014,5.785-0.388,8.207,1.696c0.108,0.094,0.212,0.194,0.306,0.303
			c0.361,0.416,0.35,1.027-0.019,1.406c-0.367,0.376-0.984,0.412-1.407,0.076c-0.113-0.088-0.213-0.192-0.321-0.287
			c-1.331-1.16-2.888-1.692-4.639-1.548c-3.041,0.252-5.263,2.51-5.682,5.313c-0.083,0.555-0.118,1.118-0.163,1.679
			c-0.293,3.687-3.202,6.82-6.856,7.444c-4.39,0.747-8.469-2.038-9.506-6.16c-1.167-4.637,1.769-9.252,6.394-10.199
			c0.259-0.054,0.517-0.105,0.779-0.124C18.169,16.715,18.47,16.73,18.769,16.73z"/>
		<path fill-rule="evenodd" clip-rule="evenodd" fill="#FFFFFF" d="M33.492,33.333c-2.103-0.03-3.954-0.72-5.535-2.117
			c-0.264-0.232-0.438-0.499-0.434-0.865c0.005-0.396,0.177-0.695,0.514-0.887c0.35-0.2,0.709-0.185,1.054,0.024
			c0.092,0.056,0.171,0.131,0.252,0.201c2.457,2.141,5.931,2.124,8.379-0.046c0.212-0.187,0.433-0.334,0.726-0.348
			c0.431-0.021,0.813,0.199,0.988,0.583c0.181,0.396,0.128,0.77-0.145,1.108c-0.059,0.073-0.132,0.138-0.203,0.201
			c-1.354,1.208-2.928,1.921-4.738,2.101c-0.142,0.014-0.285,0.034-0.428,0.042C33.78,33.338,33.636,33.333,33.492,33.333z"/>
	</g>
</g>
</svg>
