<?xml version="1.0" encoding="utf-8"?>
<!-- Generator: Adobe Illustrator 16.0.0, SVG Export Plug-In . SVG Version: 6.00 Build 0)  -->
<!DOCTYPE svg PUBLIC "-//W3C//DTD SVG 1.1//EN" "http://www.w3.org/Graphics/SVG/1.1/DTD/svg11.dtd">
<svg version="1.1" id="Layer_1" xmlns="http://www.w3.org/2000/svg" xmlns:xlink="http://www.w3.org/1999/xlink" x="0px" y="0px"
	 width="50px" height="50px" viewBox="0 0 50 50" enable-background="new 0 0 50 50" xml:space="preserve">
<g>
	<path fill="#00398B" d="M25,49.25c13.338,0,24.25-10.912,24.25-24.25S38.338,0.75,25,0.75C11.663,0.75,0.75,11.662,0.75,25
		S11.663,49.25,25,49.25z"/>
	<g>
		<g>
			<path fill="#FFFFFF" d="M29.625,38.734l-2.167-9.395l6.359,6.793C33.961,36.276,33.239,37.722,29.625,38.734z"/>
			<path fill="#FFFFFF" d="M39.165,27.749l-9.106-2.746l9.106-2.168C39.165,22.834,40.032,24.136,39.165,27.749z"/>
			<path fill="#FFFFFF" d="M38.587,20.233l-9.25,2.312l6.793-6.503C36.13,16.042,37.575,16.764,38.587,20.233z"/>
			<path fill="#FFFFFF" d="M20.086,11.416l2.313,9.25l-6.504-6.792C15.895,13.874,16.617,12.428,20.086,11.416z"/>
			<path fill="#FFFFFF" d="M10.836,22.401l9.105,2.601l-9.105,2.313C10.836,27.315,9.969,26.014,10.836,22.401z"/>
			<path fill="#FFFFFF" d="M11.414,29.917l9.25-2.313l-6.793,6.505C13.871,34.108,12.57,33.531,11.414,29.917z"/>
		</g>
		<g>
			<path fill="#EA6434" d="M35.84,34.542l-6.504-6.939l8.961,2.747C38.297,30.206,38.442,31.795,35.84,34.542z"/>
			<path fill="#EA6434" d="M34.395,14.018l-6.938,6.648l2.601-8.96C30.203,11.561,31.793,11.561,34.395,14.018z"/>
			<path fill="#EA6434" d="M27.602,10.838L25,19.944l-2.313-9.105C22.688,10.838,23.988,9.97,27.602,10.838z"/>
			<path fill="#EA6434" d="M14.016,15.607l6.648,6.794l-9.106-2.602C11.558,19.944,11.414,18.354,14.016,15.607z"/>
			<path fill="#EA6434" d="M15.75,36.132l6.793-6.648l-2.457,9.105C20.086,38.445,18.496,38.589,15.75,36.132z"/>
			<path fill="#EA6434" d="M22.543,39.167l2.602-9.25l2.313,9.105C27.458,39.167,26.156,40.034,22.543,39.167z"/>
		</g>
	</g>
</g>
</svg>
