<?xml version="1.0" encoding="utf-8"?>
<!-- Generator: Adobe Illustrator 16.0.0, SVG Export Plug-In . SVG Version: 6.00 Build 0)  -->
<!DOCTYPE svg PUBLIC "-//W3C//DTD SVG 1.1//EN" "http://www.w3.org/Graphics/SVG/1.1/DTD/svg11.dtd">
<svg version="1.1" id="Layer_1" xmlns="http://www.w3.org/2000/svg" xmlns:xlink="http://www.w3.org/1999/xlink" x="0px" y="0px"
	 width="50px" height="50px" viewBox="0 0 50 50" enable-background="new 0 0 50 50" xml:space="preserve">
<g>
	<path fill="#00398B" d="M25,49.25c13.337,0,24.25-10.913,24.25-24.25S38.337,0.75,25,0.75S0.75,11.663,0.75,25
		S11.663,49.25,25,49.25z"/>
	<path fill="#EB6434" d="M11.42,36.155c0,1.34,1.086,2.425,2.425,2.425h8.245c1.339,0,2.425-1.085,2.425-2.425V27.91
		c0-1.339-1.086-2.426-2.425-2.426h-8.245c-1.339,0-2.425,1.087-2.425,2.426V36.155z"/>
	<path fill="#00398B" d="M22.575,36.155c0,0.268-0.217,0.485-0.485,0.485h-8.245c-0.269,0-0.485-0.218-0.485-0.485V27.91
		c0-0.268,0.217-0.484,0.485-0.484h8.245c0.269,0,0.485,0.217,0.485,0.484V36.155z"/>
	<path fill="#EEF8F8" d="M18.453,29.123c0,1.339,1.085,2.424,2.425,2.424h8.245c1.339,0,2.425-1.085,2.425-2.424v-8.246
		c0-1.339-1.085-2.424-2.425-2.424h-8.245c-1.339,0-2.425,1.085-2.425,2.424V29.123z"/>
	<path fill="#00398B" d="M29.607,29.123c0,0.268-0.217,0.484-0.485,0.484h-8.245c-0.268,0-0.485-0.217-0.485-0.484v-8.246
		c0-0.268,0.217-0.484,0.485-0.484h8.245c0.268,0,0.485,0.217,0.485,0.484V29.123z"/>
	<path fill="#FFFFFF" d="M25.485,22.09c0,1.339,1.086,2.426,2.425,2.426h8.245c1.339,0,2.425-1.087,2.425-2.426v-8.244
		c0-1.34-1.085-2.426-2.425-2.426H27.91c-1.339,0-2.425,1.086-2.425,2.426V22.09z"/>
	<path fill="#00398B" d="M36.64,22.09c0,0.269-0.217,0.485-0.485,0.485H27.91c-0.268,0-0.485-0.217-0.485-0.485v-8.244
		c0-0.269,0.217-0.486,0.485-0.486h8.245c0.268,0,0.485,0.218,0.485,0.486V22.09z"/>
</g>
</svg>
