<?xml version="1.0" encoding="utf-8"?>
<!-- Generator: Adobe Illustrator 16.0.0, SVG Export Plug-In . SVG Version: 6.00 Build 0)  -->
<!DOCTYPE svg PUBLIC "-//W3C//DTD SVG 1.1//EN" "http://www.w3.org/Graphics/SVG/1.1/DTD/svg11.dtd">
<svg version="1.1" id="Layer_1" xmlns="http://www.w3.org/2000/svg" xmlns:xlink="http://www.w3.org/1999/xlink" x="0px" y="0px"
	 width="50px" height="50px" viewBox="0 0 50 50" enable-background="new 0 0 50 50" xml:space="preserve">
<g>
	<path fill="#00398B" d="M25,49.251c13.338,0,24.25-10.915,24.25-24.252c0-13.338-10.912-24.25-24.25-24.25
		c-13.337,0-24.25,10.912-24.25,24.25C0.75,38.336,11.663,49.251,25,49.251z"/>
	<g>
		<path fill-rule="evenodd" clip-rule="evenodd" fill="#FFFFFF" d="M33.755,29.401c-4.853,0-9.498,0-14.122,0
			c-0.037,0.634,0.007,1.284,0.089,1.884c0.228,1.671,0.975,3.124,2.191,4.308c0.869,0.846,1.924,1.25,3.141,1.312
			c2.083,0.103,3.89-0.266,5.589-1.475c0.19-0.137,0.508-0.386,0.733-0.558c0.254,0.368,1.176,1.818,1.418,2.19
			c-0.875,0.744-1.832,1.253-2.803,1.717c-2.074,0.991-3.831,1.105-6.503,0.734c-1.19-0.165-2.319-0.711-3.352-1.497
			c-1.694-1.29-2.595-3.011-3.199-4.946c-0.678-2.173-0.898-4.441-0.591-6.663c0.315-2.289,0.964-4.545,2.554-6.372
			c1.387-1.595,3.083-2.548,5.214-2.844c1.345-0.188,2.617-0.028,3.876,0.315c2.527,0.69,4.032,2.509,5.022,4.813
			C33.772,24.368,33.852,28.904,33.755,29.401z M30.986,26.896c-0.039-0.367-0.083-0.903-0.13-1.25
			c-0.208-1.533-0.692-2.967-1.703-4.155c-1.034-1.214-2.408-1.621-3.987-1.603c-1.936,0.024-3.384,0.796-4.4,2.443
			c-0.554,0.897-0.84,1.883-1.062,2.892c-0.115,0.526-0.167,1.066-0.261,1.686c3.832,0,7.535,0.001,11.239-0.009
			C30.78,26.899,30.856,26.892,30.986,26.896z"/>
		<g>
			<path fill="#EB6434" d="M24.988,13.071c3.832,0,7.261,1.716,9.568,4.418l1.555-2.423c-2.797-2.939-6.745-4.776-11.123-4.776
				c-4.31,0-8.311,1.84-11.1,4.698l1.526,2.509C17.722,14.79,21.153,13.071,24.988,13.071z"/>
		</g>
	</g>
</g>
</svg>
