<?xml version="1.0" encoding="utf-8"?>
<!-- Generator: Adobe Illustrator 16.0.0, SVG Export Plug-In . SVG Version: 6.00 Build 0)  -->
<!DOCTYPE svg PUBLIC "-//W3C//DTD SVG 1.1//EN" "http://www.w3.org/Graphics/SVG/1.1/DTD/svg11.dtd">
<svg version="1.1" id="Layer_1" xmlns="http://www.w3.org/2000/svg" xmlns:xlink="http://www.w3.org/1999/xlink" x="0px" y="0px"
	 width="50px" height="50px" viewBox="0 0 50 50" enable-background="new 0 0 50 50" xml:space="preserve">
<g>
	<path fill="#00398B" d="M25,49.25c13.338,0,24.25-10.912,24.25-24.25S38.338,0.75,25,0.75S0.75,11.662,0.75,25
		S11.662,49.25,25,49.25z"/>
	<g>
		<path fill="#FFFFFF" d="M16.541,25c0-0.968,0.155-1.898,0.441-2.768l-5.007-3.829C10.998,20.389,10.45,22.627,10.45,25
			c0,2.372,0.548,4.611,1.525,6.597l5.007-3.83C16.696,26.897,16.541,25.968,16.541,25z"/>
		<path fill="#FFFFFF" d="M11.975,18.403l5.007,3.829c1.155-3.509,4.451-6.03,8.356-6.03c2.098,0,3.993,0.745,5.482,1.963
			l4.331-4.332c-2.639-2.3-6.023-3.722-9.813-3.722C19.455,10.111,14.396,13.48,11.975,18.403z"/>
		<path fill="#FFFFFF" d="M37.519,22.292H31.97h-6.632v5.753h7.985c-0.399,1.96-1.481,3.473-3.036,4.453l4.754,3.681
			c2.732-2.54,4.508-6.328,4.508-11.18c0-0.88-0.136-1.828-0.339-2.708H37.519z"/>
		<path fill="#FFFFFF" d="M30.288,32.499c-1.342,0.848-3.037,1.299-4.95,1.299c-3.909,0-7.208-2.527-8.36-6.043l-5.005,3.837
			c2.421,4.926,7.48,8.295,13.365,8.295c3.631,0,7.102-1.289,9.704-3.708L30.288,32.499z"/>
	</g>
</g>
</svg>
