<?xml version="1.0" encoding="utf-8"?>
<!-- Generator: Adobe Illustrator 16.0.0, SVG Export Plug-In . SVG Version: 6.00 Build 0)  -->
<!DOCTYPE svg PUBLIC "-//W3C//DTD SVG 1.1//EN" "http://www.w3.org/Graphics/SVG/1.1/DTD/svg11.dtd">
<svg version="1.1" id="Layer_1" xmlns="http://www.w3.org/2000/svg" xmlns:xlink="http://www.w3.org/1999/xlink" x="0px" y="0px"
	 width="50px" height="50px" viewBox="0 0 50 50" enable-background="new 0 0 50 50" xml:space="preserve">
<g>
	<path fill="#00398B" d="M25,49.25c13.338,0,24.25-10.912,24.25-24.25S38.338,0.75,25,0.75C11.663,0.75,0.75,11.662,0.75,25
		S11.663,49.25,25,49.25z"/>
	<g>
		<path fill-rule="evenodd" clip-rule="evenodd" fill="#FFFFFF" d="M11.659,32.146c0-4.638,0-9.252,0-13.913
			c1.066-0.038,2.121-0.012,3.174-0.017c1.042-0.005,2.086-0.001,3.166-0.001c0,0.563,0,1.08,0,1.651
			c0.404-0.379,0.748-0.729,1.172-0.985c0.744-0.447,1.53-0.755,2.391-0.919c0.754-0.144,1.508-0.183,2.257-0.125
			c1.258,0.097,2.438,0.446,3.337,1.412c0.201,0.216,0.353,0.479,0.544,0.745c0.041-0.03,0.096-0.059,0.131-0.104
			c0.811-1.012,1.895-1.572,3.129-1.86c0.529-0.124,1.065-0.211,1.619-0.215c0.813-0.006,1.613,0.057,2.401,0.249
			c0.978,0.239,1.825,0.712,2.459,1.502c0.369,0.46,0.608,0.988,0.76,1.57c0.142,0.543,0.14,1.083,0.14,1.629
			c0.001,2.97,0,5.939,0,8.909c0,0.516,0,0.516-0.521,0.516c-1.792,0-3.584,0-5.377,0c-0.14,0-0.281,0-0.466,0
			c0-0.185,0-0.325,0-0.465c0-2.485,0.004-4.971-0.005-7.456c-0.001-0.27-0.059-0.542-0.119-0.806
			c-0.148-0.648-0.727-0.985-1.283-1.007c-0.296-0.011-0.584-0.039-0.885-0.005c-0.833,0.098-1.234,0.509-1.388,1.341
			c-0.161,0.875-0.162,1.762-0.159,2.648c0.007,1.752,0.003,3.505,0.003,5.259c0,0.142,0,0.284,0,0.447
			c-0.111,0.018-0.197,0.043-0.283,0.043c-1.897,0.002-3.793,0.002-5.69,0.001c-0.365-0.001-0.39-0.028-0.39-0.412
			c-0.001-2.668,0-5.337-0.001-8.006c0-0.58-0.342-1.083-0.867-1.272c-0.31-0.112-0.636-0.15-0.963-0.109
			c-0.205,0.026-0.408,0.081-0.607,0.14c-0.555,0.165-0.912,0.54-1.095,1.082c-0.155,0.458-0.229,0.936-0.23,1.417
			c-0.007,2.185-0.004,4.369-0.005,6.554c0,0.092,0.002,0.184-0.001,0.275c-0.01,0.282-0.044,0.329-0.313,0.33
			c-1.962,0.003-3.924,0-5.887-0.002C11.771,32.185,11.734,32.166,11.659,32.146z"/>
	</g>
</g>
</svg>
