<?xml version="1.0" encoding="utf-8"?>
<!-- Generator: Adobe Illustrator 16.0.0, SVG Export Plug-In . SVG Version: 6.00 Build 0)  -->
<!DOCTYPE svg PUBLIC "-//W3C//DTD SVG 1.1//EN" "http://www.w3.org/Graphics/SVG/1.1/DTD/svg11.dtd">
<svg version="1.1" id="Layer_1" xmlns="http://www.w3.org/2000/svg" xmlns:xlink="http://www.w3.org/1999/xlink" x="0px" y="0px"
	 width="50px" height="50px" viewBox="0 0 50 50" enable-background="new 0 0 50 50" xml:space="preserve">
<g>
	<path fill="#00398B" d="M25,49.251c13.338,0,24.25-10.915,24.25-24.251C49.25,11.661,38.338,0.749,25,0.749
		C11.663,0.749,0.75,11.661,0.75,25C0.75,38.336,11.663,49.251,25,49.251z"/>
	<g>
		<path fill-rule="evenodd" clip-rule="evenodd" fill="#FFFFFF" d="M13.353,39.48c0.714-0.444,1.435-0.877,2.141-1.334
			c3.479-2.242,6.76-4.754,9.97-7.359c2.851-2.316,5.606-4.736,8.205-7.334c0.182-0.182,0.34-0.198,0.527-0.037
			c0.712,0.604,1.471,1.162,2.12,1.828c0.797,0.818,0.701,1.637-0.231,2.315c-0.89,0.646-1.816,1.246-2.743,1.841
			c-4.194,2.693-8.541,5.111-13.037,7.26C18.049,37.738,15.756,38.733,13.353,39.48z"/>
		<path fill-rule="evenodd" clip-rule="evenodd" fill="#FFFFFF" d="M19.477,34.705c0.313-0.36,0.629-0.719,0.94-1.08
			c3.017-3.5,5.699-7.236,7.906-11.303c0.408-0.753,0.775-1.527,1.14-2.301c0.123-0.262,0.252-0.342,0.485-0.152
			c0.534,0.436,1.127,0.817,1.582,1.325c0.609,0.679,0.626,1.409,0.092,2.171c-0.624,0.89-1.258,1.781-1.995,2.574
			c-2.999,3.221-6.298,6.105-9.861,8.688c-0.072,0.053-0.151,0.096-0.227,0.141C19.518,34.746,19.498,34.727,19.477,34.705z"/>
		<path fill-rule="evenodd" clip-rule="evenodd" fill="#FFFFFF" d="M24.691,16.34c1.63,0.701,2.86,2.271,2.629,4.072
			c-0.313,2.443-1.31,4.616-2.548,6.692c-0.647,1.083-1.4,2.104-2.106,3.149c-0.058,0.086-0.134,0.156-0.234,0.223
			C23.742,25.862,24.447,21.158,24.691,16.34z"/>
		<path fill-rule="evenodd" clip-rule="evenodd" fill="#FFFFFF" d="M19.664,13.503c0.809,0.298,1.328,0.909,1.829,1.528
			c0.914,1.125,1.146,2.504,1.35,3.881c0.376,2.537,0.458,5.084,0.165,7.639c-0.016,0.145-0.055,0.291-0.119,0.439
			C22.115,22.425,21.089,17.922,19.664,13.503z"/>
		<path fill-rule="evenodd" clip-rule="evenodd" fill="#FFFFFF" d="M21.591,22.037c-2.729-3.894-5.404-7.814-8.445-11.518
			c0.138,0.047,0.283,0.081,0.413,0.146c1.295,0.634,2.325,1.599,3.246,2.682c1.988,2.334,3.343,5.038,4.492,7.855
			c0.098,0.239,0.193,0.479,0.286,0.72C21.596,21.957,21.588,22,21.591,22.037z"/>
	</g>
</g>
</svg>
