<?xml version="1.0" encoding="utf-8"?>
<!-- Generator: Adobe Illustrator 16.0.0, SVG Export Plug-In . SVG Version: 6.00 Build 0)  -->
<!DOCTYPE svg PUBLIC "-//W3C//DTD SVG 1.1//EN" "http://www.w3.org/Graphics/SVG/1.1/DTD/svg11.dtd">
<svg version="1.1" id="Layer_1" xmlns="http://www.w3.org/2000/svg" xmlns:xlink="http://www.w3.org/1999/xlink" x="0px" y="0px"
	 width="50px" height="50px" viewBox="0 0 50 50" enable-background="new 0 0 50 50" xml:space="preserve">
<g>
	<path fill="#00398B" d="M25,49.25c13.338,0,24.25-10.913,24.25-24.251C49.25,11.663,38.338,0.75,25,0.75
		C11.663,0.75,0.75,11.663,0.75,25C0.75,38.337,11.663,49.25,25,49.25z"/>
	<g>
		<g>
			<path fill="#FFFFFF" d="M10.451,20.051c0.237,0,0.237,0,0.356,0c0.831-0.119,1.425,0.119,1.781,0.949
				c1.188,2.258,2.494,4.515,3.682,6.771c0.475,0.832,1.069,0.713,1.782,0.832c0.712,0,0.95-0.237,1.188-0.832
				c1.188-2.256,2.375-4.513,3.563-6.771c0.595-1.187,0.713-1.187,2.138-0.949c-0.594,1.068-1.188,2.138-1.663,3.207
				c-0.95,1.9-2.02,3.682-2.969,5.582c-0.356,0.831-1.069,1.069-1.901,1.188c-1.782,0.238-2.969-0.475-3.682-2.139
				c-1.188-2.493-2.613-4.75-3.919-7.125C10.688,20.526,10.569,20.408,10.451,20.051z"/>
		</g>
		<path fill="#FFFFFF" d="M31.711,24.92c-1.663-1.662-3.325-3.206-5.107-4.869c1.069-0.119,2.02-0.119,2.851,0.831
			c2.851,2.851,5.82,5.701,8.79,8.434c0.119,0.118,0.356,0.237,0.594,0.474c-1.188,0.12-2.019,0.12-2.732-0.712
			c-1.069-1.188-2.256-2.138-3.326-3.206c-1.187,1.068-2.256,2.018-3.326,3.206c-0.831,0.95-1.663,0.832-2.851,0.712
			C28.386,28.127,30.048,26.583,31.711,24.92z"/>
		<path fill="#EA6434" d="M36.105,23.97c-0.475-0.475-0.713-0.712-1.188-1.068c0.95-0.95,1.9-1.901,2.969-2.731
			c0.475-0.356,1.306-0.119,1.663-0.238C38.481,21.239,37.412,22.545,36.105,23.97z"/>
	</g>
</g>
</svg>
