<?xml version="1.0" encoding="utf-8"?>
<!-- Generator: Adobe Illustrator 16.0.0, SVG Export Plug-In . SVG Version: 6.00 Build 0)  -->
<!DOCTYPE svg PUBLIC "-//W3C//DTD SVG 1.1//EN" "http://www.w3.org/Graphics/SVG/1.1/DTD/svg11.dtd">
<svg version="1.1" id="Layer_1" xmlns="http://www.w3.org/2000/svg" xmlns:xlink="http://www.w3.org/1999/xlink" x="0px" y="0px"
	 width="50px" height="50px" viewBox="0 0 50 50" enable-background="new 0 0 50 50" xml:space="preserve">
<g>
	<g>
		<path fill="#00398B" d="M25,49.251c13.338,0,24.25-10.914,24.25-24.251C49.25,11.662,38.338,0.749,25,0.749S0.75,11.662,0.75,25
			C0.75,38.337,11.662,49.251,25,49.251z"/>
	</g>
	<g>
		<path fill-rule="evenodd" clip-rule="evenodd" fill="#FFFFFF" d="M18.382,30.64c0.174-0.521,0.324-0.937,0.454-1.356
			c0.317-1.033,0.629-2.072,0.939-3.108c0.402-1.333,0.786-2.672,1.201-4.002c0.324-1.041,0.185-0.938,1.207-0.938
			c1.036,0,2.069,0,3.106,0c0.169,0,0.338,0,0.58,0c-0.101,0.366-0.162,0.662-0.26,0.95c-0.352,1.004-0.719,2.009-1.073,3.013
			c-0.62,1.753-1.241,3.505-1.85,5.263c-0.599,1.721-1.182,3.448-1.773,5.172c-0.055,0.162-0.119,0.319-0.189,0.497
			c-1.601,0-3.179,0-4.788,0c-0.196-0.547-0.4-1.095-0.591-1.643c-0.879-2.52-1.754-5.042-2.633-7.563
			c-0.591-1.707-1.188-3.415-1.78-5.121c-0.052-0.16-0.093-0.322-0.15-0.524c0.181-0.019,0.314-0.043,0.445-0.043
			c1.278-0.004,2.556-0.004,3.834,0c0.426,0,0.441,0,0.573,0.431c0.504,1.644,1.002,3.29,1.5,4.934
			c0.375,1.238,0.748,2.47,1.123,3.706C18.275,30.384,18.31,30.454,18.382,30.64z"/>
		<path fill-rule="evenodd" clip-rule="evenodd" fill="#EB6434" d="M32.362,28.779c-0.623,0-1.226,0-1.883,0
			c-1.141-2.444-2.289-4.909-3.45-7.404c0.41-0.113,0.787-0.043,1.154-0.057c0.379-0.013,0.758-0.002,1.187-0.002
			c0.676,1.449,1.352,2.896,2.059,4.411c0.127-0.269,0.219-0.466,0.311-0.662c0.68-1.451,1.351-2.907,2.033-4.358
			c0.445-0.95,0.907-1.895,1.353-2.845c0.58-1.231,1.161-2.464,1.727-3.701c0.082-0.179,0.159-0.297,0.364-0.292
			c0.64,0.004,1.278,0.007,1.917,0.014c0.027,0,0.057,0.033,0.115,0.064c-0.014,0.071-0.011,0.159-0.044,0.228
			c-0.522,1.127-1.054,2.248-1.579,3.373c-0.856,1.845-1.71,3.688-2.567,5.532c-0.261,0.566-0.521,1.128-0.786,1.689
			c-0.515,1.109-1.034,2.216-1.552,3.32C32.608,28.324,32.482,28.55,32.362,28.779z"/>
	</g>
</g>
</svg>
