<?xml version="1.0" encoding="utf-8"?>
<!-- Generator: Adobe Illustrator 18.0.0, SVG Export Plug-In . SVG Version: 6.00 Build 0)  -->
<!DOCTYPE svg PUBLIC "-//W3C//DTD SVG 1.1//EN" "http://www.w3.org/Graphics/SVG/1.1/DTD/svg11.dtd">
<svg version="1.1" id="Capa_1" xmlns="http://www.w3.org/2000/svg" xmlns:xlink="http://www.w3.org/1999/xlink" x="0px" y="0px"
	 viewBox="285 0 1350 1080" enable-background="new 285 0 1350 1080" xml:space="preserve">
<g>
	<path fill="#FFFFFF" d="M722.6,324.3c0,37.3,30.2,67.5,67.5,67.5h339.6c37.3,0,67.5-30.2,67.5-67.5V67.4
		c0-37.3-30.2-67.5-67.5-67.5H790.1c-37.3,0-67.5,30.2-67.5,67.5V324.3z M879.9,57.3h160v66.9c0,13.9-11.4,25.3-25.3,25.3H905.3
		c-13.9,0-25.3-11.4-25.3-25.3V57.3H879.9z"/>
	<g>
		<path fill="#FFFFFF" d="M1030.8,1046.1c0,18.6,15.2,33.8,33.8,33.8h169.8c18.6,0,33.8-15.2,33.8-33.8v-32.9c0-13.6,9.6-39.4,18-50
			l234.6-270.7c19.1-23.9,29.6-53.6,29.6-84.4l-0.5-368.5c0.1-41-36.6-73.5-78.9-66.5c-33.2,5.4-56.2,36.6-56.1,70.2l0.2,209.5
			c0.1,30.6-10.3,60.3-29.6,84.4l-69.7,84.1c-11.6,14.5-32.9,16.9-47.4,5.3c-14.5-11.6-16.9-32.9-5.3-47.4l45.3-54.9
			c20.9-26.2,22.4-65,0-89.9c-28.6-31.8-77.6-29.3-103.2,2.9l-120.3,144.6c-35.5,44.5-54.5,99.8-54.2,156.8L1030.8,1046.1z"/>
		<path fill="#FFFFFF" d="M889,738.6c0.4-57-18.6-112.3-54.2-156.8L714.7,437.5c-25.7-32.1-74.6-34.6-103.2-2.9
			c-22.5,24.9-21,63.7,0,89.9l45.3,54.9c11.6,14.5,9.2,35.9-5.3,47.4c-14.5,11.6-35.9,9.2-47.4-5.3l-69.7-84.1
			c-19.2-24.1-29.7-53.8-29.6-84.4l0.2-209.5c0.2-33.6-22.9-64.9-56.1-70.2c-42.3-7-79,25.5-78.9,66.5l-0.5,368.5
			c0,30.8,10.5,60.5,29.6,84.4l234.6,270.7c8.5,10.6,18,36.4,18,50v32.9c0,18.6,15.2,33.8,33.8,33.8h169.8
			c18.6,0,33.8-15.2,33.8-33.8L889,738.6z"/>
	</g>
</g>
</svg>
