<svg id="ACCUV_Logo_RGB" xmlns="http://www.w3.org/2000/svg" viewBox="0 0 465.27 89.82"><defs><style>.cls-1{fill:#12f9e3;}.cls-2{fill:#250e62;}</style></defs><title>AccuV_Logo_Blue_Turquoise_RGB</title><path class="cls-1" d="M452,5,424.43,70.53a6.12,6.12,0,0,1-11,0l-27-65.09L386.22,5h-12.6l29.19,70.23.17.36a17.75,17.75,0,0,0,31.88.09L464.58,5Z"/><path class="cls-2" d="M167.2,56.16a31.54,31.54,0,1,1,0-22.49l.19.48h12.16l-.27-1a43.17,43.17,0,1,0,0,23.44l.27-1H167.39Z"/><path class="cls-2" d="M263.42,56.16a31.54,31.54,0,1,1,0-22.49l.19.48h12.16l-.27-1a43.17,43.17,0,1,0,0,23.44l.27-1H263.61Z"/><path class="cls-2" d="M62.46,15.35,62.29,15a17.75,17.75,0,0,0-31.88-.09L.69,85.58H13.31L40.84,20.06a6.12,6.12,0,0,1,11,0L79.05,85.58h12.6Z"/><path class="cls-2" d="M350.91,5V45c0,16.66-12.11,30.73-26.46,30.73s-26-13.79-26-30.73V5H287v39.9c0,25,15.85,43.17,37.68,43.17s37.68-18.15,37.68-43.17V5Z"/></svg>