<?xml version="1.0" encoding="utf-8"?>
<!-- Generator: Adobe Illustrator 22.0.0, SVG Export Plug-In . SVG Version: 6.00 Build 0)  -->
<svg version="1.1" id="Layer_1" xmlns="http://www.w3.org/2000/svg" xmlns:xlink="http://www.w3.org/1999/xlink" x="0px" y="0px"
	 viewBox="870.525 -23.166 855.949 1060" enable-background="new 870.525 -23.166 855.949 1060" xml:space="preserve">
<rect x="868.5" y="-23.167" fill="#E0E0E0" width="860" height="1060"/>
<rect x="1283.5" y="126.833" opacity="0.5" fill="#250E62" width="20" height="295"/>
<rect x="1283.5" y="591.833" opacity="0.5" fill="#250E62" width="20" height="295"/>
<path opacity="0.5" fill="#250E62" d="M1233.5,721.833c0,13.807-11.193,25-25,25h-50.004v-20h50.004c2.762,0,5-2.238,5-5v-130h20
	V721.833z"/>
<path opacity="0.5" fill="#250E62" d="M1268.504,831.833c0,13.807-11.193,25-25,25H1193.5v-20h50.004c2.762,0,5-2.238,5-5v-240h20
	V831.833z"/>
<path opacity="0.5" fill="#250E62" d="M1318.496,831.833c0,13.807,11.193,25,25,25h50.004v-20h-50.004c-2.762,0-5-2.238-5-5v-240
	h-20V831.833z"/>
<path opacity="0.5" fill="#250E62" d="M1353.5,721.833c0,13.807,11.193,25,25,25h50.004v-20H1378.5c-2.762,0-5-2.238-5-5v-130h-20
	V721.833z"/>
<path fill="#FFFFFF" d="M1168.5,736.83c0-30.375-24.624-54.999-55-54.999c-30.375,0-54.999,24.624-54.999,54.999
	c0,30.376,24.624,55,54.999,55C1143.876,791.83,1168.5,767.206,1168.5,736.83z"/>
<g opacity="0.5">
	<g>
		<path fill="#12F9E3" d="M1113.5,686.831c27.57,0,50,22.429,50,49.999c0,27.57-22.43,50-50,50c-27.57,0-49.999-22.43-49.999-50
			C1063.501,709.26,1085.93,686.831,1113.5,686.831 M1113.5,681.831c-30.375,0-54.999,24.624-54.999,54.999
			c0,30.376,24.624,55,54.999,55c30.376,0,55-24.624,55-55C1168.5,706.455,1143.876,681.831,1113.5,681.831L1113.5,681.831z"/>
	</g>
</g>
<path fill="#FFFFFF" d="M1223.5,846.829c0-24.853-20.147-44.999-45-44.999c-24.854,0-45,20.146-45,44.999c0,24.853,20.146,45,45,45
	C1203.353,891.829,1223.5,871.682,1223.5,846.829z"/>
<g opacity="0.5">
	<g>
		<path fill="#12F9E3" d="M1178.5,806.83c22.056,0,40,17.943,40,39.999c0,22.056-17.944,40-40,40s-40-17.944-40-40
			C1138.5,824.773,1156.444,806.83,1178.5,806.83 M1178.5,801.83c-24.854,0-45,20.146-45,44.999c0,24.853,20.146,45,45,45
			c24.853,0,45-20.147,45-45C1223.5,821.976,1203.353,801.83,1178.5,801.83L1178.5,801.83z"/>
	</g>
</g>
<path fill="#FFFFFF" d="M1418.501,736.83c0-30.375,24.624-54.999,55-54.999c30.375,0,54.999,24.624,54.999,54.999
	c0,30.376-24.624,55-54.999,55C1443.125,791.83,1418.501,767.206,1418.501,736.83z"/>
<g opacity="0.5">
	<g>
		<path fill="#12F9E3" d="M1473.501,686.831c27.57,0,49.999,22.429,49.999,49.999c0,27.57-22.429,50-49.999,50
			c-27.57,0-50-22.43-50-50C1423.501,709.26,1445.931,686.831,1473.501,686.831 M1473.501,681.831c-30.376,0-55,24.624-55,54.999
			c0,30.376,24.624,55,55,55c30.375,0,54.999-24.624,54.999-55C1528.5,706.455,1503.876,681.831,1473.501,681.831L1473.501,681.831z
			"/>
	</g>
</g>
<path fill="#FFFFFF" d="M1363.501,846.829c0-24.853,20.147-44.999,45-44.999c24.854,0,45,20.146,45,44.999c0,24.853-20.146,45-45,45
	C1383.648,891.829,1363.501,871.682,1363.501,846.829z"/>
<g opacity="0.5">
	<g>
		<path fill="#12F9E3" d="M1408.501,806.83c22.056,0,40,17.943,40,39.999c0,22.056-17.944,40-40,40s-40-17.944-40-40
			C1368.501,824.773,1386.445,806.83,1408.501,806.83 M1408.501,801.83c-24.853,0-45,20.146-45,44.999c0,24.853,20.147,45,45,45
			c24.854,0,45-20.147,45-45C1453.501,821.976,1433.354,801.83,1408.501,801.83L1408.501,801.83z"/>
	</g>
</g>
<path fill="#FFFFFF" d="M1348.5,926.83c0,30.375-24.625,54.999-55,54.999c-30.376,0-55-24.624-55-54.999c0-30.376,24.624-55,55-55
	C1323.875,871.83,1348.5,896.454,1348.5,926.83z"/>
<g opacity="0.5">
	<g>
		<path fill="#12F9E3" d="M1293.5,876.83c27.57,0,50,22.43,50,49.999c0,27.57-22.43,50-50,50s-50-22.43-50-50
			C1243.5,899.259,1265.93,876.83,1293.5,876.83 M1293.5,871.83c-30.376,0-55,24.624-55,54.999c0,30.376,24.624,55,55,55
			c30.375,0,55-24.624,55-55C1348.5,896.454,1323.875,871.83,1293.5,871.83L1293.5,871.83z"/>
	</g>
</g>
<path opacity="0.5" fill="#250E62" d="M1233.5,291.833c0-13.807-11.193-25-25-25h-50.004v20h50.004c2.762,0,5,2.239,5,5v130h20
	V291.833z"/>
<path opacity="0.5" fill="#250E62" d="M1268.504,181.833c0-13.807-11.193-25-25-25H1193.5v20h50.004c2.762,0,5,2.239,5,5v240h20
	V181.833z"/>
<path opacity="0.5" fill="#250E62" d="M1318.496,181.833c0-13.807,11.193-25,25-25h50.004v20h-50.004c-2.762,0-5,2.239-5,5v240h-20
	V181.833z"/>
<path opacity="0.5" fill="#250E62" d="M1353.5,291.833c0-13.807,11.193-25,25-25h50.004v20H1378.5c-2.762,0-5,2.239-5,5v130h-20
	V291.833z"/>
<path fill="#FFFFFF" d="M1563.5,456.833c-4.456,0-8.849,0.194-13.173,0.558c-23.015-36.231-65.595-60.558-114.327-60.558
	c-1.076,0-2.149,0.014-3.22,0.038c-29.236-30.677-72.039-50.038-119.74-50.038c-52.84,0-99.672,23.756-128.706,60.339
	c-16.32-6.643-34.359-10.339-53.335-10.339c-55.636,0-103.255,31.706-122.892,76.638c-6.341-1.072-12.896-1.638-19.608-1.638
	c-55.228,0-100,38.056-100,85s44.772,85,100,85c25.749,0,49.223-8.275,66.948-21.863c21.432,13.779,47.469,21.863,75.552,21.863
	c32.951,0,63.089-11.124,86.27-29.527c26.673,18.538,59.833,29.527,95.771,29.527c22.95,0,44.763-4.489,64.482-12.554
	c17.638,8.034,37.485,12.554,58.477,12.554c29.067,0,55.942-8.66,77.787-23.332c15.046,5.34,31.906,8.332,49.713,8.332
	c63.513,0,115-38.056,115-85S1627.013,456.833,1563.5,456.833z"/>
<linearGradient id="SVGID_1_" gradientUnits="userSpaceOnUse" x1="1229.5988" y1="506.8338" x2="1367.4011" y2="506.8338">
	<stop  offset="0" style="stop-color:#250E62;stop-opacity:0"/>
	<stop  offset="0.2855" style="stop-color:#3B56A5"/>
	<stop  offset="1" style="stop-color:#12F9E3"/>
</linearGradient>
<path opacity="0.5" fill="url(#SVGID_1_)" d="M1331.061,573.53c-0.013,0-0.024,0-0.037,0c-5.216-0.013-9.953-2.986-12.362-7.757
	l-0.123-0.267l-47.151-114.248c-1.122-2.126-3.143-3.394-5.432-3.4c-0.005,0-0.011,0-0.016,0c-2.281,0-4.301,1.257-5.431,3.371
	l-23.491,55.784c-0.827,1.965-3.091,2.887-5.056,2.059c-1.965-0.827-2.887-3.091-2.06-5.056l23.608-56.063l0.066-0.128
	c2.428-4.745,7.163-7.689,12.364-7.689c0.012,0,0.024,0,0.036,0c5.217,0.014,9.954,2.986,12.364,7.757l0.122,0.267l47.152,114.248
	c1.122,2.126,3.143,3.394,5.431,3.4c0.005,0,0.011,0,0.016,0c2.281,0,4.301-1.256,5.431-3.371l23.491-55.784
	c0.828-1.966,3.093-2.887,5.056-2.059c1.964,0.827,2.887,3.091,2.059,5.056l-23.609,56.063l-0.065,0.128
	C1340.996,570.587,1336.261,573.53,1331.061,573.53z"/>
<path opacity="0.5" fill="#250E62" d="M1138.484,735.546l-23.548-22.783c-0.714-0.689-1.845-0.694-2.561-0.008l-23.933,22.854
	c-0.547,0.522-0.721,1.324-0.439,2.024c0.279,0.699,0.959,1.16,1.714,1.16h4.309v20.777c0,1.02,0.905,1.845,1.926,1.845h9.852
	v-13.619c0-1.023,0.902-1.847,1.922-1.847h11.545c1.021,0,1.771,0.824,1.771,1.847v13.619h10.003c1.021,0,1.77-0.825,1.77-1.845
	v-20.777h4.465h0.005c1.021,0,1.847-0.827,1.847-1.849C1139.129,736.385,1138.878,735.884,1138.484,735.546z"/>
<path fill="#FFFFFF" d="M1168.5,276.833c0,30.375-24.624,54.999-55,54.999c-30.375,0-54.999-24.624-54.999-54.999
	c0-30.376,24.624-55,54.999-55C1143.876,221.833,1168.5,246.457,1168.5,276.833z"/>
<g opacity="0.5">
	<g>
		<path fill="#12F9E3" d="M1113.5,226.833c27.57,0,50,22.43,50,50s-22.43,50-50,50c-27.57,0-49.999-22.43-49.999-50
			S1085.93,226.833,1113.5,226.833 M1113.5,221.833c-30.375,0-54.999,24.624-54.999,55s24.624,55,54.999,55
			c30.376,0,55-24.624,55-55S1143.876,221.833,1113.5,221.833L1113.5,221.833z"/>
	</g>
</g>
<g opacity="0.5">
	<g>
		<path fill="none" stroke="#250E62" stroke-width="2" stroke-miterlimit="10" d="M1146,333.125
			c-1.751,1.011-3.529,1.931-5.329,2.762"/>
		<path fill="none" stroke="#250E62" stroke-width="2" stroke-miterlimit="10" stroke-dasharray="11.3048,11.3048" d="
			M1130.04,339.71c-27.653,7.292-57.844-4.419-72.831-30.378c-15.971-27.663-9.297-62.187,14.27-82.105"/>
		<path fill="none" stroke="#250E62" stroke-width="2" stroke-miterlimit="10" d="M1075.943,223.776
			c1.62-1.144,3.306-2.224,5.057-3.235"/>
	</g>
</g>
<circle fill="#FFFFFF" cx="1178.5" cy="166.834" r="45"/>
<g opacity="0.5">
	<g>
		<path fill="#12F9E3" d="M1178.5,126.834c22.056,0,40,17.944,40,40c0,22.056-17.944,40-40,40s-40-17.944-40-40
			C1138.5,144.778,1156.444,126.834,1178.5,126.834 M1178.5,121.834c-24.854,0-45,20.147-45,45c0,24.853,20.146,45,45,45
			c24.853,0,45-20.147,45-45C1223.5,141.981,1203.353,121.834,1178.5,121.834L1178.5,121.834z"/>
	</g>
</g>
<g opacity="0.5">
	<g>
		<path fill="none" stroke="#250E62" stroke-width="2" stroke-miterlimit="10" d="M1143.219,208.879
			c-1.551-1.302-3.012-2.671-4.382-4.099"/>
		<path fill="none" stroke="#250E62" stroke-width="2" stroke-miterlimit="10" stroke-dasharray="12.3373,12.3373" d="
			M1131.367,194.988c-11.655-19.508-10.343-45.046,5.087-63.435c16.816-20.04,44.904-25.041,67.209-13.511"/>
		<path fill="none" stroke="#250E62" stroke-width="2" stroke-miterlimit="10" d="M1208.981,121.184
			c1.645,1.101,3.247,2.302,4.798,3.604"/>
	</g>
</g>
<path fill="#FFFFFF" d="M1418.501,276.833c0,30.375,24.624,54.999,55,54.999c30.375,0,54.999-24.624,54.999-54.999
	c0-30.376-24.624-55-54.999-55C1443.125,221.833,1418.501,246.457,1418.501,276.833z"/>
<g opacity="0.5">
	<g>
		<path fill="#12F9E3" d="M1473.501,226.833c27.57,0,49.999,22.43,49.999,50s-22.429,50-49.999,50c-27.57,0-50-22.43-50-50
			S1445.931,226.833,1473.501,226.833 M1473.501,221.833c-30.376,0-55,24.624-55,55s24.624,55,55,55
			c30.375,0,54.999-24.624,54.999-55S1503.876,221.833,1473.501,221.833L1473.501,221.833z"/>
	</g>
</g>
<path opacity="0.5" fill="none" stroke="#250E62" stroke-width="2" stroke-miterlimit="10" stroke-dasharray="12" d="
	M1459.255,340.253c35.027,7.867,69.797-14.15,77.665-49.174c7.867-35.027-14.148-69.799-49.173-77.666"/>
<circle fill="#FFFFFF" cx="1408.501" cy="166.834" r="45"/>
<g opacity="0.5">
	<g>
		<path fill="#12F9E3" d="M1408.501,126.834c22.056,0,40,17.944,40,40c0,22.056-17.944,40-40,40s-40-17.944-40-40
			C1368.501,144.778,1386.445,126.834,1408.501,126.834 M1408.501,121.834c-24.853,0-45,20.147-45,45c0,24.853,20.147,45,45,45
			c24.854,0,45-20.147,45-45C1453.501,141.981,1433.354,121.834,1408.501,121.834L1408.501,121.834z"/>
	</g>
</g>
<path opacity="0.5" fill="none" stroke="#250E62" stroke-width="2" stroke-miterlimit="10" stroke-dasharray="12" d="
	M1363.776,198.844c17.679,24.701,52.033,30.394,76.734,12.715c24.701-17.679,30.393-52.034,12.715-76.735"/>
<g opacity="0.5">
	<path opacity="0.5" fill="#250E62" d="M1120.012,296.345c0,3.594-2.908,6.504-6.504,6.504s-6.504-2.91-6.504-6.504
		c0-3.595,2.908-6.505,6.504-6.505S1120.012,292.75,1120.012,296.345z M1098.536,283.825l4.985,4.182
		c4.975-5.941,15.009-5.941,19.976,0.005l4.992-4.167c-3.729-4.458-9.189-7.014-14.982-7.014
		C1107.713,276.83,1102.258,279.379,1098.536,283.825z M1089.402,274.507l4.822,4.371c4.922-5.438,11.948-8.55,19.283-8.55
		c7.331,0,14.355,3.112,19.277,8.537l4.816-4.371c-6.156-6.783-14.936-10.672-24.094-10.672
		C1104.342,263.824,1095.557,267.723,1089.402,274.507z M1080.229,265.267l4.753,4.439c7.354-7.871,17.751-12.388,28.525-12.388
		c10.931,0,21.057,4.398,28.515,12.375l4.75-4.446c-8.575-9.173-20.702-14.431-33.265-14.431
		C1100.937,250.816,1088.81,256.081,1080.229,265.267z"/>
</g>
<g opacity="0.5">
	<path opacity="0.5" fill="#250E62" d="M1425.793,164.459c0.006-0.177,0.053-0.34,0.053-0.515c0-6.388-5.178-11.563-11.563-11.563
		c-4.33,0-8.059,2.41-10.039,5.934c-0.496-0.088-1-0.151-1.523-0.151c-3.789,0-6.975,2.444-8.154,5.832
		c-0.174-0.012-0.338-0.051-0.518-0.051c-4.787,0-8.672,3.884-8.672,8.671c0,4.787,3.885,8.672,8.672,8.672h28.906
		c4.787,0,8.672-3.885,8.672-8.672C1431.627,168.827,1429.182,165.637,1425.793,164.459z"/>
</g>
<g opacity="0.5">
	<g>
		<path opacity="0.5" fill="#250E62" d="M1449.801,749.81h47.398c0.621,0,1.129-0.506,1.129-1.129v-29.344
			c0-2.486-2.023-4.514-4.514-4.514h-40.627c-2.492,0-4.516,2.025-4.516,4.514v29.344
			C1448.672,749.304,1449.178,749.81,1449.801,749.81z M1453.188,719.337h40.627v24.828h-40.627V719.337L1453.188,719.337z
			 M1499.459,752.066h-20.314c-0.625,0-1.129,0.508-1.129,1.131v1.127h-9.029v-1.127c0-0.623-0.508-1.131-1.129-1.131h-20.313
			c-0.623,0-1.127,0.508-1.127,1.131v2.256c0,1.865,1.517,3.385,3.385,3.385h47.396c1.865,0,3.389-1.52,3.389-3.385v-2.256
			C1500.586,752.574,1500.078,752.066,1499.459,752.066z"/>
	</g>
</g>
<g opacity="0.5">
	<g>
		<path fill="#250E62" d="M1469.925,271.825c0.13-0.282,0.29-0.614,0.481-0.927c0.079-0.131,0.167-0.265,0.26-0.401l-0.01-0.006
			c-0.094,0.116-0.195,0.243-0.289,0.372c-0.2,0.27-0.39,0.568-0.596,0.946c-0.283,0.508-0.497,1.073-0.635,1.645l0.294,0.05
			C1469.517,272.921,1469.688,272.344,1469.925,271.825z"/>
		<path fill="#250E62" d="M1474.104,283.871l-1.137,0.693c0.042,0.081,0.084,0.161,0.126,0.242c0.191,0.366,0.358,0.7,0.508,1.033
			c0.222,0.49,0.438,1.018,0.674,1.64l1.501-0.608C1475.212,285.697,1474.676,284.734,1474.104,283.871z"/>
		<path fill="#250E62" d="M1469.312,277.814c0.309,1.109,0.849,2.156,1.406,3.13l0.787-0.548c-0.566-0.816-1.167-1.751-1.554-2.783
			L1469.312,277.814z"/>
		<path fill="#250E62" d="M1475.342,291.491c0.173,0.989,0.276,2.04,0.307,3.131l2.276-0.146c-0.138-1.192-0.352-2.344-0.641-3.425
			L1475.342,291.491z"/>
		<path fill="#250E62" d="M1501.208,264.743v-2.945h-6.157v-4.556h-8.046v1.97h-9.082v7.143h-2.063
			c-2.545,1.366-3.962,3.268-4.393,4.262c-0.348,0.807-0.527,1.596-0.53,2.348c-0.009,1.515,0.98,3.152,2.942,4.868l0.014,0.012
			c2.298,2.006,8.011,7.354,10.821,14.981c0.751,2.037,1.16,5.038,1.16,5.038h17.385v-33.12H1501.208z M1484.81,270.932
			c-0.022,0.02-0.047,0.042-0.07,0.063h-3.969v-3.079h4.039V270.932L1484.81,270.932z M1484.81,264.837h-4.039v-3.078h4.039V264.837
			z M1492.465,272.561h-3.087v-2.352h3.087V272.561L1492.465,272.561z M1492.465,268.866h-3.087v-2.352h3.087V268.866
			L1492.465,268.866z M1492.465,265.172h-3.087v-2.353h3.087V265.172L1492.465,265.172z M1492.465,261.477h-3.087v-2.352h3.087
			V261.477L1492.465,261.477z M1499.361,277.611h-3.087v-2.352h3.087V277.611L1499.361,277.611z M1499.361,273.918h-3.087v-2.352
			h3.087V273.918L1499.361,273.918z M1499.361,270.223h-3.087v-2.352h3.087V270.223L1499.361,270.223z M1499.361,266.528h-3.087
			v-2.351h3.087V266.528L1499.361,266.528z"/>
		<path fill="#250E62" d="M1466.279,280.826c-0.417-1.615-0.563-3.148-0.47-4.547c0.11-1.57,0.515-2.992,1.173-4.109
			c0.439-0.751,0.854-1.315,1.302-1.777c0.54-0.55,1.072-0.998,1.637-1.371c0.239-0.158,0.64-0.453,1.069-0.711v-11.814h-9.651
			v10.902h-1.665l0.009-11.595h-7.732v11.595h-0.477v-4.039h-7.732v34.504h22.678c0,0,2.389-2.702,2.107-7.629
			C1468.29,286.037,1467.026,283.718,1466.279,280.826z M1449.121,278.84h-3.087v-2.353h3.087V278.84z M1449.121,275.146h-3.087
			v-2.352h3.087V275.146z M1449.121,271.452h-3.087V269.1h3.087V271.452z M1449.121,267.758h-3.087v-2.352h3.087V267.758z
			 M1454.243,257.852h3.087v2.352h-3.087V257.852z M1454.243,261.545h3.087v2.353h-3.087V261.545z M1454.243,265.24h3.087v2.159
			h-3.087V265.24z M1459.185,279.223h-4.04v-3.079h4.04V279.223L1459.185,279.223z M1459.185,273.065h-4.04v-3.079h4.04V273.065
			L1459.185,273.065z M1464.146,259.789h4.038v3.078h-4.038V259.789z M1464.146,265.946h4.038v3.015
			c-0.021,0.022-0.048,0.043-0.068,0.064h-3.97V265.946L1464.146,265.946z"/>
	</g>
</g>
<g opacity="0.5">
	<path opacity="0.5" fill="#250E62" d="M1304.568,897.316h-22.135c-3.393,0-6.148,2.76-6.148,6.15v46.73
		c0,3.389,2.756,6.147,6.148,6.147h22.135c3.389,0,6.148-2.76,6.148-6.147v-46.73
		C1310.717,900.076,1307.957,897.316,1304.568,897.316z M1287.352,902.236h12.297c0.68,0,1.232,0.551,1.232,1.231
		c0,0.678-0.553,1.23-1.232,1.23h-12.297c-0.678,0-1.229-0.553-1.229-1.23C1286.123,902.787,1286.674,902.236,1287.352,902.236z
		 M1293.502,952.656c-1.359,0-2.459-1.102-2.459-2.459c0-1.359,1.1-2.459,2.459-2.459c1.357,0,2.459,1.1,2.459,2.459
		C1295.961,951.554,1294.861,952.656,1293.502,952.656z M1308.258,944.048h-29.514v-34.434h29.514V944.048z"/>
</g>
<g opacity="0.5">
	<g>
		<path opacity="0.5" fill="#250E62" d="M1183.271,848.871c-1.457,1.459-3.996,1.459-5.451,0l-1.363-1.361
			c-0.752-0.756-1.971-0.756-2.725,0c-0.754,0.752-0.754,1.973,0,2.727l1.361,1.359c1.457,1.459,3.393,2.26,5.451,2.26
			s3.996-0.801,5.451-2.256l8.859-8.861c3.008-3.006,3.008-7.896,0-10.9l-1.361-1.361c-1.457-1.459-3.393-2.26-5.453-2.26
			c-2.059,0-3.994,0.805-5.449,2.258l-4.188,4.188c-0.754,0.754-0.754,1.971,0,2.723c0.754,0.756,1.973,0.756,2.725,0l4.189-4.184
			c1.455-1.457,3.99-1.457,5.449,0l1.361,1.361c1.502,1.504,1.502,3.949,0,5.451L1183.271,848.871z M1171.006,842.056l-8.857,8.863
			c-1.457,1.455-2.258,3.389-2.258,5.447c0,2.06,0.801,3.996,2.258,5.449l1.363,1.365c1.455,1.457,3.393,2.26,5.449,2.26
			c2.059,0,3.994-0.803,5.449-2.26l3.826-3.824c0.754-0.756,0.754-1.975,0.002-2.725c-0.754-0.758-1.973-0.758-2.727-0.002
			l-3.826,3.826c-0.728,0.729-1.695,1.129-2.724,1.129s-1.998-0.4-2.727-1.129l-1.361-1.365c-0.728-0.727-1.131-1.693-1.131-2.725
			c0-1.029,0.402-1.996,1.131-2.725l8.859-8.857c1.455-1.459,3.994-1.459,5.449-0.002c0.752,0.754,1.971,0.754,2.725,0.002
			c0.754-0.756,0.754-1.973,0.002-2.727c-1.457-1.457-3.393-2.26-5.451-2.26C1174.396,839.8,1172.463,840.603,1171.006,842.056z"/>
	</g>
</g>
<g opacity="0.5">
	<g>
		<g>
			<path opacity="0.5" fill="#250E62" d="M1408.502,828.181c-4.692,0-8.514,3.818-8.514,8.514v26.352
				c0,1.342,1.092,2.432,2.434,2.432h12.162c1.34,0,2.434-1.09,2.434-2.432v-26.352C1417.016,832,1413.197,828.181,1408.502,828.181
				z M1408.502,859.802c-2.012,0-3.646-1.639-3.646-3.646c0-2.014,1.637-3.65,3.646-3.65c2.012,0,3.648,1.639,3.648,3.65
				C1412.15,858.164,1410.514,859.802,1408.502,859.802z M1408.502,850.072c-2.012,0-3.646-1.637-3.646-3.648
				c0-2.01,1.637-3.646,3.646-3.646c2.012,0,3.648,1.637,3.648,3.646C1412.15,848.435,1410.514,850.072,1408.502,850.072z
				 M1408.502,840.343c-2.012,0-3.646-1.639-3.646-3.648c0-2.012,1.637-3.648,3.646-3.648c2.012,0,3.648,1.639,3.648,3.648
				C1412.15,838.705,1410.514,840.343,1408.502,840.343z"/>
		</g>
	</g>
	<g>
		<g>
			<path opacity="0.5" fill="#250E62" d="M1423.098,833.044h-4.285c0.402,1.147,0.639,2.369,0.639,3.648v3.527
				c2.771-0.564,4.863-3.022,4.863-5.959C1424.313,833.589,1423.77,833.044,1423.098,833.044z"/>
		</g>
	</g>
	<g>
		<g>
			<path opacity="0.5" fill="#250E62" d="M1423.098,842.775h-3.646v7.174c2.771-0.564,4.863-3.021,4.863-5.959
				C1424.313,843.318,1423.77,842.775,1423.098,842.775z"/>
		</g>
	</g>
	<g>
		<g>
			<path opacity="0.5" fill="#250E62" d="M1423.098,852.503h-3.646v7.176c2.771-0.563,4.863-3.02,4.863-5.959
				C1424.313,853.048,1423.77,852.503,1423.098,852.503z"/>
		</g>
	</g>
	<g>
		<g>
			<path opacity="0.5" fill="#250E62" d="M1393.908,852.503c-0.672,0-1.217,0.545-1.217,1.217c0,2.939,2.094,5.396,4.865,5.959
				v-7.176H1393.908L1393.908,852.503z"/>
		</g>
	</g>
	<g>
		<g>
			<path opacity="0.5" fill="#250E62" d="M1393.908,842.775c-0.672,0-1.217,0.543-1.217,1.215c0,2.938,2.094,5.395,4.865,5.959
				v-7.174H1393.908z"/>
		</g>
	</g>
	<g>
		<g>
			<path opacity="0.5" fill="#250E62" d="M1393.908,833.044c-0.672,0-1.217,0.545-1.217,1.217c0,2.94,2.094,5.397,4.865,5.959
				v-3.525c0-1.279,0.232-2.504,0.639-3.648h-4.287V833.044z"/>
		</g>
	</g>
</g>
<ellipse transform="matrix(0.0104 -0.9999 0.9999 0.0104 1193.2338 1379.3622)" fill="#FFFFFF" cx="1293.5" cy="86.834" rx="54.999" ry="55"/>
<g opacity="0.5">
	<g>
		<path fill="#12F9E3" d="M1293.5,36.834c27.57,0,50,22.43,50,50c0,27.57-22.43,49.999-50,49.999s-50-22.43-50-49.999
			C1243.5,59.264,1265.93,36.834,1293.5,36.834 M1293.5,31.834c-30.376,0-55,24.624-55,55c0,30.375,24.624,54.999,55,54.999
			c30.375,0,55-24.624,55-54.999C1348.5,56.458,1323.875,31.834,1293.5,31.834L1293.5,31.834z"/>
	</g>
</g>
<path opacity="0.5" fill="none" stroke="#250E62" stroke-width="2" stroke-miterlimit="10" stroke-dasharray="12" d="
	M1242.393,51.048c19.764-28.225,58.666-35.084,86.893-15.32c28.225,19.763,35.085,58.666,15.321,86.891"/>
<g opacity="0.5">
	<g>
		<path fill="none" stroke="#250E62" stroke-width="2" stroke-miterlimit="10" d="M1146,680.542
			c-1.751-1.011-3.529-1.931-5.329-2.762"/>
		<path fill="none" stroke="#250E62" stroke-width="2" stroke-miterlimit="10" stroke-dasharray="11.3048,11.3048" d="
			M1130.04,673.957c-27.653-7.292-57.844,4.419-72.831,30.378c-15.971,27.663-9.297,62.187,14.27,82.105"/>
		<path fill="none" stroke="#250E62" stroke-width="2" stroke-miterlimit="10" d="M1075.943,789.892
			c1.62,1.144,3.306,2.224,5.057,3.235"/>
	</g>
</g>
<g opacity="0.5">
	<g>
		<path fill="none" stroke="#250E62" stroke-width="2" stroke-miterlimit="10" d="M1143.219,804.789
			c-1.551,1.302-3.012,2.671-4.382,4.099"/>
		<path fill="none" stroke="#250E62" stroke-width="2" stroke-miterlimit="10" stroke-dasharray="12.3373,12.3373" d="
			M1131.367,818.679c-11.654,19.508-10.343,45.045,5.088,63.435c16.816,20.041,44.904,25.041,67.209,13.511"/>
		<path fill="none" stroke="#250E62" stroke-width="2" stroke-miterlimit="10" d="M1208.982,892.482
			c1.645-1.101,3.247-2.302,4.798-3.604"/>
	</g>
</g>
<path opacity="0.5" fill="none" stroke="#250E62" stroke-width="2" stroke-miterlimit="10" stroke-dasharray="12" d="
	M1459.255,673.414c35.027-7.867,69.797,14.15,77.665,49.174c7.867,35.027-14.148,69.8-49.173,77.666"/>
<path opacity="0.5" fill="none" stroke="#250E62" stroke-width="2" stroke-miterlimit="10" stroke-dasharray="12" d="
	M1363.776,814.824c17.679-24.701,52.033-30.394,76.734-12.716c24.701,17.679,30.393,52.034,12.715,76.735"/>
<path opacity="0.5" fill="none" stroke="#250E62" stroke-width="2" stroke-miterlimit="10" stroke-dasharray="12" d="
	M1242.393,962.619c19.764,28.225,58.666,35.084,86.893,15.32c28.225-19.764,35.085-58.666,15.321-86.891"/>
<g opacity="0.5">
	<g>
		<path opacity="0.5" fill="#250E62" d="M1315.873,116.643h-7.104l-6.128-25.764h10.536c0.743,0,1.356-0.61,1.356-1.356
			c0-0.447-0.231-0.867-0.613-1.124l-8.137-5.424c-0.216-0.149-0.486-0.231-0.744-0.231h-2.71V71.896h9.505
			c0.745,0,1.356-0.611,1.356-1.355c0-0.447-0.23-0.881-0.611-1.126l-8.135-5.424c-0.22-0.148-0.49-0.231-0.762-0.231h-3.321
			l-5.693-8.867c-0.505-0.773-1.791-0.773-2.281,0l-5.733,8.867h-3.322c-0.27,0-0.528,0.083-0.745,0.231l-8.137,5.424
			c-0.624,0.421-0.787,1.263-0.378,1.885c0.256,0.379,0.675,0.61,1.126,0.61h9.49v10.848h-2.713c-0.27,0-0.528,0.083-0.759,0.23
			l-8.135,5.426c-0.625,0.42-0.786,1.261-0.382,1.883c0.26,0.38,0.68,0.611,1.126,0.611h10.454l-6.129,25.764h-6.982
			c-0.68,0-1.287,0.488-1.386,1.153c-0.12,0.813,0.53,1.531,1.343,1.531h44.707c0.675,0,1.286-0.488,1.382-1.152
			C1317.34,117.361,1316.689,116.643,1315.873,116.643z M1304.893,111.991l-9.683-12.705l5.071-6.645L1304.893,111.991z
			 M1297.449,82.743h-7.935l3.973-3.605L1297.449,82.743z M1295.509,77.28l4.095-3.703v7.431L1295.509,77.28z M1297.054,88.168
			h-7.199l2.251-2.713h2.78L1297.054,88.168z M1287.398,80.981v-7.389l4.069,3.702L1287.398,80.981z M1298.208,90.879l-4.708,6.197
			l-4.731-6.197H1298.208z M1304.621,85.455l4.065,2.712h-8.16l-2.169-2.712H1304.621z M1303.265,66.475l4.068,2.71h-7.16
			l-2.71-2.71H1303.265z M1293.501,58.134l3.608,5.626h-7.228L1293.501,58.134z M1296.337,69.184h-5.654l2.709-2.71h0.23
			L1296.337,69.184z M1297.449,71.896l-3.962,3.579l-3.931-3.579H1297.449z M1279.671,69.184l4.067-2.71h5.803l-2.709,2.71H1279.671
			z M1278.314,88.168l4.07-2.713h6.196l-2.252,2.713H1278.314z M1286.668,92.561l5.127,6.727l-9.791,12.839L1286.668,92.561z
			 M1282.002,116.643l11.498-15.092l11.498,15.092H1282.002z"/>
	</g>
</g>
<g opacity="0.5">
	<path opacity="0.5" fill="#250E62" d="M1182.592,166.766l11.383,12.738h-30.951l11.383-12.738l4.094,3.582L1182.592,166.766z
		 M1193.787,154.164h-30.576l15.289,13.38L1193.787,154.164z M1184.182,165.376l11.211,12.543v-22.352L1184.182,165.376z
		 M1161.607,155.567v22.353l11.207-12.544L1161.607,155.567z"/>
</g>
<rect x="2023.5" y="401.833" fill="#12F9E3" width="100" height="100"/>
<rect x="1893.5" y="401.833" fill="#250E62" width="100" height="100"/>
<ellipse fill="#FFFFFF" cx="1648.5" cy="559.333" rx="65" ry="57.5"/>
</svg>
